<mxfile host="app.diagrams.net" agent="Mozilla/5.0 (Windows NT 10.0; Win64; x64) AppleWebKit/537.36 (KHTML, like Gecko) Chrome/131.0.0.0 Safari/537.36" version="26.0.12">
  <diagram id="C5RBs43oDa-KdzZeNtuy" name="Page-1">
    <mxGraphModel dx="3088" dy="786" grid="1" gridSize="10" guides="1" tooltips="1" connect="1" arrows="1" fold="1" page="1" pageScale="1" pageWidth="827" pageHeight="1169" math="0" shadow="0">
      <root>
        <mxCell id="WIyWlLk6GJQsqaUBKTNV-0" />
        <mxCell id="WIyWlLk6GJQsqaUBKTNV-1" parent="WIyWlLk6GJQsqaUBKTNV-0" />
        <mxCell id="1T0dUiYLCHS9hBQFqfqJ-4" value="用户workbench申请理赔，填写了很多数据，主要是上传了各种证件等，会首先写入&lt;div&gt;claim_application表&lt;/div&gt;&lt;div&gt;&lt;br&gt;&lt;/div&gt;" style="text;html=1;align=center;verticalAlign=middle;resizable=0;points=[];autosize=1;strokeColor=none;fillColor=none;" vertex="1" parent="WIyWlLk6GJQsqaUBKTNV-1">
          <mxGeometry x="-850" y="530" width="470" height="60" as="geometry" />
        </mxCell>
        <mxCell id="1T0dUiYLCHS9hBQFqfqJ-10" value="claim_application" style="shape=table;startSize=30;container=1;collapsible=1;childLayout=tableLayout;fixedRows=1;rowLines=0;fontStyle=1;align=center;resizeLast=1;html=1;" vertex="1" parent="WIyWlLk6GJQsqaUBKTNV-1">
          <mxGeometry x="-710" y="585" width="180" height="175" as="geometry" />
        </mxCell>
        <mxCell id="1T0dUiYLCHS9hBQFqfqJ-11" value="" style="shape=tableRow;horizontal=0;startSize=0;swimlaneHead=0;swimlaneBody=0;fillColor=none;collapsible=0;dropTarget=0;points=[[0,0.5],[1,0.5]];portConstraint=eastwest;top=0;left=0;right=0;bottom=1;" vertex="1" parent="1T0dUiYLCHS9hBQFqfqJ-10">
          <mxGeometry y="30" width="180" height="30" as="geometry" />
        </mxCell>
        <mxCell id="1T0dUiYLCHS9hBQFqfqJ-12" value="PK" style="shape=partialRectangle;connectable=0;fillColor=none;top=0;left=0;bottom=0;right=0;fontStyle=1;overflow=hidden;whiteSpace=wrap;html=1;" vertex="1" parent="1T0dUiYLCHS9hBQFqfqJ-11">
          <mxGeometry width="30" height="30" as="geometry">
            <mxRectangle width="30" height="30" as="alternateBounds" />
          </mxGeometry>
        </mxCell>
        <mxCell id="1T0dUiYLCHS9hBQFqfqJ-13" value="id" style="shape=partialRectangle;connectable=0;fillColor=none;top=0;left=0;bottom=0;right=0;align=left;spacingLeft=6;fontStyle=5;overflow=hidden;whiteSpace=wrap;html=1;" vertex="1" parent="1T0dUiYLCHS9hBQFqfqJ-11">
          <mxGeometry x="30" width="150" height="30" as="geometry">
            <mxRectangle width="150" height="30" as="alternateBounds" />
          </mxGeometry>
        </mxCell>
        <mxCell id="1T0dUiYLCHS9hBQFqfqJ-14" value="" style="shape=tableRow;horizontal=0;startSize=0;swimlaneHead=0;swimlaneBody=0;fillColor=none;collapsible=0;dropTarget=0;points=[[0,0.5],[1,0.5]];portConstraint=eastwest;top=0;left=0;right=0;bottom=0;" vertex="1" parent="1T0dUiYLCHS9hBQFqfqJ-10">
          <mxGeometry y="60" width="180" height="30" as="geometry" />
        </mxCell>
        <mxCell id="1T0dUiYLCHS9hBQFqfqJ-15" value="" style="shape=partialRectangle;connectable=0;fillColor=none;top=0;left=0;bottom=0;right=0;editable=1;overflow=hidden;whiteSpace=wrap;html=1;" vertex="1" parent="1T0dUiYLCHS9hBQFqfqJ-14">
          <mxGeometry width="30" height="30" as="geometry">
            <mxRectangle width="30" height="30" as="alternateBounds" />
          </mxGeometry>
        </mxCell>
        <mxCell id="1T0dUiYLCHS9hBQFqfqJ-16" value="report_no" style="shape=partialRectangle;connectable=0;fillColor=none;top=0;left=0;bottom=0;right=0;align=left;spacingLeft=6;overflow=hidden;whiteSpace=wrap;html=1;" vertex="1" parent="1T0dUiYLCHS9hBQFqfqJ-14">
          <mxGeometry x="30" width="150" height="30" as="geometry">
            <mxRectangle width="150" height="30" as="alternateBounds" />
          </mxGeometry>
        </mxCell>
        <mxCell id="1T0dUiYLCHS9hBQFqfqJ-17" value="" style="shape=tableRow;horizontal=0;startSize=0;swimlaneHead=0;swimlaneBody=0;fillColor=none;collapsible=0;dropTarget=0;points=[[0,0.5],[1,0.5]];portConstraint=eastwest;top=0;left=0;right=0;bottom=0;" vertex="1" parent="1T0dUiYLCHS9hBQFqfqJ-10">
          <mxGeometry y="90" width="180" height="30" as="geometry" />
        </mxCell>
        <mxCell id="1T0dUiYLCHS9hBQFqfqJ-18" value="" style="shape=partialRectangle;connectable=0;fillColor=none;top=0;left=0;bottom=0;right=0;editable=1;overflow=hidden;whiteSpace=wrap;html=1;" vertex="1" parent="1T0dUiYLCHS9hBQFqfqJ-17">
          <mxGeometry width="30" height="30" as="geometry">
            <mxRectangle width="30" height="30" as="alternateBounds" />
          </mxGeometry>
        </mxCell>
        <mxCell id="1T0dUiYLCHS9hBQFqfqJ-19" value="report_date" style="shape=partialRectangle;connectable=0;fillColor=none;top=0;left=0;bottom=0;right=0;align=left;spacingLeft=6;overflow=hidden;whiteSpace=wrap;html=1;" vertex="1" parent="1T0dUiYLCHS9hBQFqfqJ-17">
          <mxGeometry x="30" width="150" height="30" as="geometry">
            <mxRectangle width="150" height="30" as="alternateBounds" />
          </mxGeometry>
        </mxCell>
        <mxCell id="1T0dUiYLCHS9hBQFqfqJ-20" value="" style="shape=tableRow;horizontal=0;startSize=0;swimlaneHead=0;swimlaneBody=0;fillColor=none;collapsible=0;dropTarget=0;points=[[0,0.5],[1,0.5]];portConstraint=eastwest;top=0;left=0;right=0;bottom=0;" vertex="1" parent="1T0dUiYLCHS9hBQFqfqJ-10">
          <mxGeometry y="120" width="180" height="25" as="geometry" />
        </mxCell>
        <mxCell id="1T0dUiYLCHS9hBQFqfqJ-21" value="" style="shape=partialRectangle;connectable=0;fillColor=none;top=0;left=0;bottom=0;right=0;editable=1;overflow=hidden;whiteSpace=wrap;html=1;" vertex="1" parent="1T0dUiYLCHS9hBQFqfqJ-20">
          <mxGeometry width="30" height="25" as="geometry">
            <mxRectangle width="30" height="25" as="alternateBounds" />
          </mxGeometry>
        </mxCell>
        <mxCell id="1T0dUiYLCHS9hBQFqfqJ-22" value="application_status&lt;div&gt;&lt;br&gt;&lt;/div&gt;" style="shape=partialRectangle;connectable=0;fillColor=none;top=0;left=0;bottom=0;right=0;align=left;spacingLeft=6;overflow=hidden;whiteSpace=wrap;html=1;" vertex="1" parent="1T0dUiYLCHS9hBQFqfqJ-20">
          <mxGeometry x="30" width="150" height="25" as="geometry">
            <mxRectangle width="150" height="25" as="alternateBounds" />
          </mxGeometry>
        </mxCell>
        <mxCell id="1T0dUiYLCHS9hBQFqfqJ-23" value="handler_id" style="text;html=1;align=center;verticalAlign=middle;resizable=0;points=[];autosize=1;strokeColor=none;fillColor=none;" vertex="1" parent="WIyWlLk6GJQsqaUBKTNV-1">
          <mxGeometry x="-680" y="730" width="80" height="30" as="geometry" />
        </mxCell>
        <mxCell id="1T0dUiYLCHS9hBQFqfqJ-24" value="claim_application_detail" style="shape=table;startSize=30;container=1;collapsible=1;childLayout=tableLayout;fixedRows=1;rowLines=0;fontStyle=1;align=center;resizeLast=1;html=1;" vertex="1" parent="WIyWlLk6GJQsqaUBKTNV-1">
          <mxGeometry x="-460" y="590" width="180" height="150" as="geometry" />
        </mxCell>
        <mxCell id="1T0dUiYLCHS9hBQFqfqJ-25" value="" style="shape=tableRow;horizontal=0;startSize=0;swimlaneHead=0;swimlaneBody=0;fillColor=none;collapsible=0;dropTarget=0;points=[[0,0.5],[1,0.5]];portConstraint=eastwest;top=0;left=0;right=0;bottom=1;" vertex="1" parent="1T0dUiYLCHS9hBQFqfqJ-24">
          <mxGeometry y="30" width="180" height="30" as="geometry" />
        </mxCell>
        <mxCell id="1T0dUiYLCHS9hBQFqfqJ-26" value="PK" style="shape=partialRectangle;connectable=0;fillColor=none;top=0;left=0;bottom=0;right=0;fontStyle=1;overflow=hidden;whiteSpace=wrap;html=1;" vertex="1" parent="1T0dUiYLCHS9hBQFqfqJ-25">
          <mxGeometry width="30" height="30" as="geometry">
            <mxRectangle width="30" height="30" as="alternateBounds" />
          </mxGeometry>
        </mxCell>
        <mxCell id="1T0dUiYLCHS9hBQFqfqJ-27" value="id" style="shape=partialRectangle;connectable=0;fillColor=none;top=0;left=0;bottom=0;right=0;align=left;spacingLeft=6;fontStyle=5;overflow=hidden;whiteSpace=wrap;html=1;" vertex="1" parent="1T0dUiYLCHS9hBQFqfqJ-25">
          <mxGeometry x="30" width="150" height="30" as="geometry">
            <mxRectangle width="150" height="30" as="alternateBounds" />
          </mxGeometry>
        </mxCell>
        <mxCell id="1T0dUiYLCHS9hBQFqfqJ-28" value="" style="shape=tableRow;horizontal=0;startSize=0;swimlaneHead=0;swimlaneBody=0;fillColor=none;collapsible=0;dropTarget=0;points=[[0,0.5],[1,0.5]];portConstraint=eastwest;top=0;left=0;right=0;bottom=0;" vertex="1" parent="1T0dUiYLCHS9hBQFqfqJ-24">
          <mxGeometry y="60" width="180" height="30" as="geometry" />
        </mxCell>
        <mxCell id="1T0dUiYLCHS9hBQFqfqJ-29" value="" style="shape=partialRectangle;connectable=0;fillColor=none;top=0;left=0;bottom=0;right=0;editable=1;overflow=hidden;whiteSpace=wrap;html=1;" vertex="1" parent="1T0dUiYLCHS9hBQFqfqJ-28">
          <mxGeometry width="30" height="30" as="geometry">
            <mxRectangle width="30" height="30" as="alternateBounds" />
          </mxGeometry>
        </mxCell>
        <mxCell id="1T0dUiYLCHS9hBQFqfqJ-30" value="claim_application_id" style="shape=partialRectangle;connectable=0;fillColor=none;top=0;left=0;bottom=0;right=0;align=left;spacingLeft=6;overflow=hidden;whiteSpace=wrap;html=1;" vertex="1" parent="1T0dUiYLCHS9hBQFqfqJ-28">
          <mxGeometry x="30" width="150" height="30" as="geometry">
            <mxRectangle width="150" height="30" as="alternateBounds" />
          </mxGeometry>
        </mxCell>
        <mxCell id="1T0dUiYLCHS9hBQFqfqJ-31" value="" style="shape=tableRow;horizontal=0;startSize=0;swimlaneHead=0;swimlaneBody=0;fillColor=none;collapsible=0;dropTarget=0;points=[[0,0.5],[1,0.5]];portConstraint=eastwest;top=0;left=0;right=0;bottom=0;" vertex="1" parent="1T0dUiYLCHS9hBQFqfqJ-24">
          <mxGeometry y="90" width="180" height="30" as="geometry" />
        </mxCell>
        <mxCell id="1T0dUiYLCHS9hBQFqfqJ-32" value="" style="shape=partialRectangle;connectable=0;fillColor=none;top=0;left=0;bottom=0;right=0;editable=1;overflow=hidden;whiteSpace=wrap;html=1;" vertex="1" parent="1T0dUiYLCHS9hBQFqfqJ-31">
          <mxGeometry width="30" height="30" as="geometry">
            <mxRectangle width="30" height="30" as="alternateBounds" />
          </mxGeometry>
        </mxCell>
        <mxCell id="1T0dUiYLCHS9hBQFqfqJ-33" value="" style="shape=partialRectangle;connectable=0;fillColor=none;top=0;left=0;bottom=0;right=0;align=left;spacingLeft=6;overflow=hidden;whiteSpace=wrap;html=1;" vertex="1" parent="1T0dUiYLCHS9hBQFqfqJ-31">
          <mxGeometry x="30" width="150" height="30" as="geometry">
            <mxRectangle width="150" height="30" as="alternateBounds" />
          </mxGeometry>
        </mxCell>
        <mxCell id="1T0dUiYLCHS9hBQFqfqJ-34" value="" style="shape=tableRow;horizontal=0;startSize=0;swimlaneHead=0;swimlaneBody=0;fillColor=none;collapsible=0;dropTarget=0;points=[[0,0.5],[1,0.5]];portConstraint=eastwest;top=0;left=0;right=0;bottom=0;" vertex="1" parent="1T0dUiYLCHS9hBQFqfqJ-24">
          <mxGeometry y="120" width="180" height="30" as="geometry" />
        </mxCell>
        <mxCell id="1T0dUiYLCHS9hBQFqfqJ-35" value="" style="shape=partialRectangle;connectable=0;fillColor=none;top=0;left=0;bottom=0;right=0;editable=1;overflow=hidden;whiteSpace=wrap;html=1;" vertex="1" parent="1T0dUiYLCHS9hBQFqfqJ-34">
          <mxGeometry width="30" height="30" as="geometry">
            <mxRectangle width="30" height="30" as="alternateBounds" />
          </mxGeometry>
        </mxCell>
        <mxCell id="1T0dUiYLCHS9hBQFqfqJ-36" value="" style="shape=partialRectangle;connectable=0;fillColor=none;top=0;left=0;bottom=0;right=0;align=left;spacingLeft=6;overflow=hidden;whiteSpace=wrap;html=1;" vertex="1" parent="1T0dUiYLCHS9hBQFqfqJ-34">
          <mxGeometry x="30" width="150" height="30" as="geometry">
            <mxRectangle width="150" height="30" as="alternateBounds" />
          </mxGeometry>
        </mxCell>
        <mxCell id="1T0dUiYLCHS9hBQFqfqJ-37" style="edgeStyle=orthogonalEdgeStyle;rounded=0;orthogonalLoop=1;jettySize=auto;html=1;exitX=1;exitY=0.5;exitDx=0;exitDy=0;entryX=0;entryY=0.5;entryDx=0;entryDy=0;" edge="1" parent="WIyWlLk6GJQsqaUBKTNV-1" source="1T0dUiYLCHS9hBQFqfqJ-11" target="1T0dUiYLCHS9hBQFqfqJ-28">
          <mxGeometry relative="1" as="geometry" />
        </mxCell>
        <mxCell id="1T0dUiYLCHS9hBQFqfqJ-38" value="如果用户仅仅是报案，只是预留了，报案人以及被保人的信息，就是进入claim_application_draft表中" style="text;html=1;align=center;verticalAlign=middle;resizable=0;points=[];autosize=1;strokeColor=none;fillColor=none;" vertex="1" parent="WIyWlLk6GJQsqaUBKTNV-1">
          <mxGeometry x="-145" y="538" width="550" height="30" as="geometry" />
        </mxCell>
        <mxCell id="1T0dUiYLCHS9hBQFqfqJ-39" value="claim_application_draft" style="shape=table;startSize=30;container=1;collapsible=1;childLayout=tableLayout;fixedRows=1;rowLines=0;fontStyle=1;align=center;resizeLast=1;html=1;" vertex="1" parent="WIyWlLk6GJQsqaUBKTNV-1">
          <mxGeometry x="40" y="570" width="180" height="150" as="geometry" />
        </mxCell>
        <mxCell id="1T0dUiYLCHS9hBQFqfqJ-40" value="" style="shape=tableRow;horizontal=0;startSize=0;swimlaneHead=0;swimlaneBody=0;fillColor=none;collapsible=0;dropTarget=0;points=[[0,0.5],[1,0.5]];portConstraint=eastwest;top=0;left=0;right=0;bottom=1;" vertex="1" parent="1T0dUiYLCHS9hBQFqfqJ-39">
          <mxGeometry y="30" width="180" height="30" as="geometry" />
        </mxCell>
        <mxCell id="1T0dUiYLCHS9hBQFqfqJ-41" value="PK" style="shape=partialRectangle;connectable=0;fillColor=none;top=0;left=0;bottom=0;right=0;fontStyle=1;overflow=hidden;whiteSpace=wrap;html=1;" vertex="1" parent="1T0dUiYLCHS9hBQFqfqJ-40">
          <mxGeometry width="30" height="30" as="geometry">
            <mxRectangle width="30" height="30" as="alternateBounds" />
          </mxGeometry>
        </mxCell>
        <mxCell id="1T0dUiYLCHS9hBQFqfqJ-42" value="id" style="shape=partialRectangle;connectable=0;fillColor=none;top=0;left=0;bottom=0;right=0;align=left;spacingLeft=6;fontStyle=5;overflow=hidden;whiteSpace=wrap;html=1;" vertex="1" parent="1T0dUiYLCHS9hBQFqfqJ-40">
          <mxGeometry x="30" width="150" height="30" as="geometry">
            <mxRectangle width="150" height="30" as="alternateBounds" />
          </mxGeometry>
        </mxCell>
        <mxCell id="1T0dUiYLCHS9hBQFqfqJ-43" value="" style="shape=tableRow;horizontal=0;startSize=0;swimlaneHead=0;swimlaneBody=0;fillColor=none;collapsible=0;dropTarget=0;points=[[0,0.5],[1,0.5]];portConstraint=eastwest;top=0;left=0;right=0;bottom=0;" vertex="1" parent="1T0dUiYLCHS9hBQFqfqJ-39">
          <mxGeometry y="60" width="180" height="30" as="geometry" />
        </mxCell>
        <mxCell id="1T0dUiYLCHS9hBQFqfqJ-44" value="" style="shape=partialRectangle;connectable=0;fillColor=none;top=0;left=0;bottom=0;right=0;editable=1;overflow=hidden;whiteSpace=wrap;html=1;" vertex="1" parent="1T0dUiYLCHS9hBQFqfqJ-43">
          <mxGeometry width="30" height="30" as="geometry">
            <mxRectangle width="30" height="30" as="alternateBounds" />
          </mxGeometry>
        </mxCell>
        <mxCell id="1T0dUiYLCHS9hBQFqfqJ-45" value="user_id" style="shape=partialRectangle;connectable=0;fillColor=none;top=0;left=0;bottom=0;right=0;align=left;spacingLeft=6;overflow=hidden;whiteSpace=wrap;html=1;" vertex="1" parent="1T0dUiYLCHS9hBQFqfqJ-43">
          <mxGeometry x="30" width="150" height="30" as="geometry">
            <mxRectangle width="150" height="30" as="alternateBounds" />
          </mxGeometry>
        </mxCell>
        <mxCell id="1T0dUiYLCHS9hBQFqfqJ-46" value="" style="shape=tableRow;horizontal=0;startSize=0;swimlaneHead=0;swimlaneBody=0;fillColor=none;collapsible=0;dropTarget=0;points=[[0,0.5],[1,0.5]];portConstraint=eastwest;top=0;left=0;right=0;bottom=0;" vertex="1" parent="1T0dUiYLCHS9hBQFqfqJ-39">
          <mxGeometry y="90" width="180" height="30" as="geometry" />
        </mxCell>
        <mxCell id="1T0dUiYLCHS9hBQFqfqJ-47" value="" style="shape=partialRectangle;connectable=0;fillColor=none;top=0;left=0;bottom=0;right=0;editable=1;overflow=hidden;whiteSpace=wrap;html=1;" vertex="1" parent="1T0dUiYLCHS9hBQFqfqJ-46">
          <mxGeometry width="30" height="30" as="geometry">
            <mxRectangle width="30" height="30" as="alternateBounds" />
          </mxGeometry>
        </mxCell>
        <mxCell id="1T0dUiYLCHS9hBQFqfqJ-48" value="draft_info(大json串)" style="shape=partialRectangle;connectable=0;fillColor=none;top=0;left=0;bottom=0;right=0;align=left;spacingLeft=6;overflow=hidden;whiteSpace=wrap;html=1;" vertex="1" parent="1T0dUiYLCHS9hBQFqfqJ-46">
          <mxGeometry x="30" width="150" height="30" as="geometry">
            <mxRectangle width="150" height="30" as="alternateBounds" />
          </mxGeometry>
        </mxCell>
        <mxCell id="1T0dUiYLCHS9hBQFqfqJ-49" value="" style="shape=tableRow;horizontal=0;startSize=0;swimlaneHead=0;swimlaneBody=0;fillColor=none;collapsible=0;dropTarget=0;points=[[0,0.5],[1,0.5]];portConstraint=eastwest;top=0;left=0;right=0;bottom=0;" vertex="1" parent="1T0dUiYLCHS9hBQFqfqJ-39">
          <mxGeometry y="120" width="180" height="30" as="geometry" />
        </mxCell>
        <mxCell id="1T0dUiYLCHS9hBQFqfqJ-50" value="" style="shape=partialRectangle;connectable=0;fillColor=none;top=0;left=0;bottom=0;right=0;editable=1;overflow=hidden;whiteSpace=wrap;html=1;" vertex="1" parent="1T0dUiYLCHS9hBQFqfqJ-49">
          <mxGeometry width="30" height="30" as="geometry">
            <mxRectangle width="30" height="30" as="alternateBounds" />
          </mxGeometry>
        </mxCell>
        <mxCell id="1T0dUiYLCHS9hBQFqfqJ-51" value="drafte_status" style="shape=partialRectangle;connectable=0;fillColor=none;top=0;left=0;bottom=0;right=0;align=left;spacingLeft=6;overflow=hidden;whiteSpace=wrap;html=1;" vertex="1" parent="1T0dUiYLCHS9hBQFqfqJ-49">
          <mxGeometry x="30" width="150" height="30" as="geometry">
            <mxRectangle width="150" height="30" as="alternateBounds" />
          </mxGeometry>
        </mxCell>
        <mxCell id="1T0dUiYLCHS9hBQFqfqJ-52" value="claim_application_image" style="shape=table;startSize=30;container=1;collapsible=1;childLayout=tableLayout;fixedRows=1;rowLines=0;fontStyle=1;align=center;resizeLast=1;html=1;" vertex="1" parent="WIyWlLk6GJQsqaUBKTNV-1">
          <mxGeometry x="-460" y="760" width="180" height="150" as="geometry" />
        </mxCell>
        <mxCell id="1T0dUiYLCHS9hBQFqfqJ-53" value="" style="shape=tableRow;horizontal=0;startSize=0;swimlaneHead=0;swimlaneBody=0;fillColor=none;collapsible=0;dropTarget=0;points=[[0,0.5],[1,0.5]];portConstraint=eastwest;top=0;left=0;right=0;bottom=1;" vertex="1" parent="1T0dUiYLCHS9hBQFqfqJ-52">
          <mxGeometry y="30" width="180" height="30" as="geometry" />
        </mxCell>
        <mxCell id="1T0dUiYLCHS9hBQFqfqJ-54" value="PK" style="shape=partialRectangle;connectable=0;fillColor=none;top=0;left=0;bottom=0;right=0;fontStyle=1;overflow=hidden;whiteSpace=wrap;html=1;" vertex="1" parent="1T0dUiYLCHS9hBQFqfqJ-53">
          <mxGeometry width="30" height="30" as="geometry">
            <mxRectangle width="30" height="30" as="alternateBounds" />
          </mxGeometry>
        </mxCell>
        <mxCell id="1T0dUiYLCHS9hBQFqfqJ-55" value="id" style="shape=partialRectangle;connectable=0;fillColor=none;top=0;left=0;bottom=0;right=0;align=left;spacingLeft=6;fontStyle=5;overflow=hidden;whiteSpace=wrap;html=1;" vertex="1" parent="1T0dUiYLCHS9hBQFqfqJ-53">
          <mxGeometry x="30" width="150" height="30" as="geometry">
            <mxRectangle width="150" height="30" as="alternateBounds" />
          </mxGeometry>
        </mxCell>
        <mxCell id="1T0dUiYLCHS9hBQFqfqJ-56" value="" style="shape=tableRow;horizontal=0;startSize=0;swimlaneHead=0;swimlaneBody=0;fillColor=none;collapsible=0;dropTarget=0;points=[[0,0.5],[1,0.5]];portConstraint=eastwest;top=0;left=0;right=0;bottom=0;" vertex="1" parent="1T0dUiYLCHS9hBQFqfqJ-52">
          <mxGeometry y="60" width="180" height="30" as="geometry" />
        </mxCell>
        <mxCell id="1T0dUiYLCHS9hBQFqfqJ-57" value="" style="shape=partialRectangle;connectable=0;fillColor=none;top=0;left=0;bottom=0;right=0;editable=1;overflow=hidden;whiteSpace=wrap;html=1;" vertex="1" parent="1T0dUiYLCHS9hBQFqfqJ-56">
          <mxGeometry width="30" height="30" as="geometry">
            <mxRectangle width="30" height="30" as="alternateBounds" />
          </mxGeometry>
        </mxCell>
        <mxCell id="1T0dUiYLCHS9hBQFqfqJ-58" value="claim_application_id" style="shape=partialRectangle;connectable=0;fillColor=none;top=0;left=0;bottom=0;right=0;align=left;spacingLeft=6;overflow=hidden;whiteSpace=wrap;html=1;" vertex="1" parent="1T0dUiYLCHS9hBQFqfqJ-56">
          <mxGeometry x="30" width="150" height="30" as="geometry">
            <mxRectangle width="150" height="30" as="alternateBounds" />
          </mxGeometry>
        </mxCell>
        <mxCell id="1T0dUiYLCHS9hBQFqfqJ-59" value="" style="shape=tableRow;horizontal=0;startSize=0;swimlaneHead=0;swimlaneBody=0;fillColor=none;collapsible=0;dropTarget=0;points=[[0,0.5],[1,0.5]];portConstraint=eastwest;top=0;left=0;right=0;bottom=0;" vertex="1" parent="1T0dUiYLCHS9hBQFqfqJ-52">
          <mxGeometry y="90" width="180" height="30" as="geometry" />
        </mxCell>
        <mxCell id="1T0dUiYLCHS9hBQFqfqJ-60" value="" style="shape=partialRectangle;connectable=0;fillColor=none;top=0;left=0;bottom=0;right=0;editable=1;overflow=hidden;whiteSpace=wrap;html=1;" vertex="1" parent="1T0dUiYLCHS9hBQFqfqJ-59">
          <mxGeometry width="30" height="30" as="geometry">
            <mxRectangle width="30" height="30" as="alternateBounds" />
          </mxGeometry>
        </mxCell>
        <mxCell id="1T0dUiYLCHS9hBQFqfqJ-61" value="image_url" style="shape=partialRectangle;connectable=0;fillColor=none;top=0;left=0;bottom=0;right=0;align=left;spacingLeft=6;overflow=hidden;whiteSpace=wrap;html=1;" vertex="1" parent="1T0dUiYLCHS9hBQFqfqJ-59">
          <mxGeometry x="30" width="150" height="30" as="geometry">
            <mxRectangle width="150" height="30" as="alternateBounds" />
          </mxGeometry>
        </mxCell>
        <mxCell id="1T0dUiYLCHS9hBQFqfqJ-62" value="" style="shape=tableRow;horizontal=0;startSize=0;swimlaneHead=0;swimlaneBody=0;fillColor=none;collapsible=0;dropTarget=0;points=[[0,0.5],[1,0.5]];portConstraint=eastwest;top=0;left=0;right=0;bottom=0;" vertex="1" parent="1T0dUiYLCHS9hBQFqfqJ-52">
          <mxGeometry y="120" width="180" height="30" as="geometry" />
        </mxCell>
        <mxCell id="1T0dUiYLCHS9hBQFqfqJ-63" value="" style="shape=partialRectangle;connectable=0;fillColor=none;top=0;left=0;bottom=0;right=0;editable=1;overflow=hidden;whiteSpace=wrap;html=1;" vertex="1" parent="1T0dUiYLCHS9hBQFqfqJ-62">
          <mxGeometry width="30" height="30" as="geometry">
            <mxRectangle width="30" height="30" as="alternateBounds" />
          </mxGeometry>
        </mxCell>
        <mxCell id="1T0dUiYLCHS9hBQFqfqJ-64" value="image_no" style="shape=partialRectangle;connectable=0;fillColor=none;top=0;left=0;bottom=0;right=0;align=left;spacingLeft=6;overflow=hidden;whiteSpace=wrap;html=1;" vertex="1" parent="1T0dUiYLCHS9hBQFqfqJ-62">
          <mxGeometry x="30" width="150" height="30" as="geometry">
            <mxRectangle width="150" height="30" as="alternateBounds" />
          </mxGeometry>
        </mxCell>
        <mxCell id="1T0dUiYLCHS9hBQFqfqJ-65" style="edgeStyle=orthogonalEdgeStyle;rounded=0;orthogonalLoop=1;jettySize=auto;html=1;exitX=1;exitY=0.5;exitDx=0;exitDy=0;entryX=0;entryY=0.5;entryDx=0;entryDy=0;" edge="1" parent="WIyWlLk6GJQsqaUBKTNV-1" source="1T0dUiYLCHS9hBQFqfqJ-11" target="1T0dUiYLCHS9hBQFqfqJ-56">
          <mxGeometry relative="1" as="geometry" />
        </mxCell>
        <mxCell id="1T0dUiYLCHS9hBQFqfqJ-66" value="claim_application_customer" style="shape=table;startSize=30;container=1;collapsible=1;childLayout=tableLayout;fixedRows=1;rowLines=0;fontStyle=1;align=center;resizeLast=1;html=1;" vertex="1" parent="WIyWlLk6GJQsqaUBKTNV-1">
          <mxGeometry x="-460" y="950" width="180" height="180" as="geometry" />
        </mxCell>
        <mxCell id="1T0dUiYLCHS9hBQFqfqJ-67" value="" style="shape=tableRow;horizontal=0;startSize=0;swimlaneHead=0;swimlaneBody=0;fillColor=none;collapsible=0;dropTarget=0;points=[[0,0.5],[1,0.5]];portConstraint=eastwest;top=0;left=0;right=0;bottom=1;" vertex="1" parent="1T0dUiYLCHS9hBQFqfqJ-66">
          <mxGeometry y="30" width="180" height="30" as="geometry" />
        </mxCell>
        <mxCell id="1T0dUiYLCHS9hBQFqfqJ-68" value="PK" style="shape=partialRectangle;connectable=0;fillColor=none;top=0;left=0;bottom=0;right=0;fontStyle=1;overflow=hidden;whiteSpace=wrap;html=1;" vertex="1" parent="1T0dUiYLCHS9hBQFqfqJ-67">
          <mxGeometry width="30" height="30" as="geometry">
            <mxRectangle width="30" height="30" as="alternateBounds" />
          </mxGeometry>
        </mxCell>
        <mxCell id="1T0dUiYLCHS9hBQFqfqJ-69" value="id" style="shape=partialRectangle;connectable=0;fillColor=none;top=0;left=0;bottom=0;right=0;align=left;spacingLeft=6;fontStyle=5;overflow=hidden;whiteSpace=wrap;html=1;" vertex="1" parent="1T0dUiYLCHS9hBQFqfqJ-67">
          <mxGeometry x="30" width="150" height="30" as="geometry">
            <mxRectangle width="150" height="30" as="alternateBounds" />
          </mxGeometry>
        </mxCell>
        <mxCell id="1T0dUiYLCHS9hBQFqfqJ-70" value="" style="shape=tableRow;horizontal=0;startSize=0;swimlaneHead=0;swimlaneBody=0;fillColor=none;collapsible=0;dropTarget=0;points=[[0,0.5],[1,0.5]];portConstraint=eastwest;top=0;left=0;right=0;bottom=0;" vertex="1" parent="1T0dUiYLCHS9hBQFqfqJ-66">
          <mxGeometry y="60" width="180" height="30" as="geometry" />
        </mxCell>
        <mxCell id="1T0dUiYLCHS9hBQFqfqJ-71" value="" style="shape=partialRectangle;connectable=0;fillColor=none;top=0;left=0;bottom=0;right=0;editable=1;overflow=hidden;whiteSpace=wrap;html=1;" vertex="1" parent="1T0dUiYLCHS9hBQFqfqJ-70">
          <mxGeometry width="30" height="30" as="geometry">
            <mxRectangle width="30" height="30" as="alternateBounds" />
          </mxGeometry>
        </mxCell>
        <mxCell id="1T0dUiYLCHS9hBQFqfqJ-72" value="application_id" style="shape=partialRectangle;connectable=0;fillColor=none;top=0;left=0;bottom=0;right=0;align=left;spacingLeft=6;overflow=hidden;whiteSpace=wrap;html=1;" vertex="1" parent="1T0dUiYLCHS9hBQFqfqJ-70">
          <mxGeometry x="30" width="150" height="30" as="geometry">
            <mxRectangle width="150" height="30" as="alternateBounds" />
          </mxGeometry>
        </mxCell>
        <mxCell id="1T0dUiYLCHS9hBQFqfqJ-73" value="" style="shape=tableRow;horizontal=0;startSize=0;swimlaneHead=0;swimlaneBody=0;fillColor=none;collapsible=0;dropTarget=0;points=[[0,0.5],[1,0.5]];portConstraint=eastwest;top=0;left=0;right=0;bottom=0;" vertex="1" parent="1T0dUiYLCHS9hBQFqfqJ-66">
          <mxGeometry y="90" width="180" height="60" as="geometry" />
        </mxCell>
        <mxCell id="1T0dUiYLCHS9hBQFqfqJ-74" value="" style="shape=partialRectangle;connectable=0;fillColor=none;top=0;left=0;bottom=0;right=0;editable=1;overflow=hidden;whiteSpace=wrap;html=1;" vertex="1" parent="1T0dUiYLCHS9hBQFqfqJ-73">
          <mxGeometry width="30" height="60" as="geometry">
            <mxRectangle width="30" height="60" as="alternateBounds" />
          </mxGeometry>
        </mxCell>
        <mxCell id="1T0dUiYLCHS9hBQFqfqJ-75" value="customer_type&lt;br&gt;(3被保人，4报案人，&lt;div&gt;5保单持有人）&lt;/div&gt;" style="shape=partialRectangle;connectable=0;fillColor=none;top=0;left=0;bottom=0;right=0;align=left;spacingLeft=6;overflow=hidden;whiteSpace=wrap;html=1;" vertex="1" parent="1T0dUiYLCHS9hBQFqfqJ-73">
          <mxGeometry x="30" width="150" height="60" as="geometry">
            <mxRectangle width="150" height="60" as="alternateBounds" />
          </mxGeometry>
        </mxCell>
        <mxCell id="1T0dUiYLCHS9hBQFqfqJ-76" value="" style="shape=tableRow;horizontal=0;startSize=0;swimlaneHead=0;swimlaneBody=0;fillColor=none;collapsible=0;dropTarget=0;points=[[0,0.5],[1,0.5]];portConstraint=eastwest;top=0;left=0;right=0;bottom=0;" vertex="1" parent="1T0dUiYLCHS9hBQFqfqJ-66">
          <mxGeometry y="150" width="180" height="30" as="geometry" />
        </mxCell>
        <mxCell id="1T0dUiYLCHS9hBQFqfqJ-77" value="" style="shape=partialRectangle;connectable=0;fillColor=none;top=0;left=0;bottom=0;right=0;editable=1;overflow=hidden;whiteSpace=wrap;html=1;" vertex="1" parent="1T0dUiYLCHS9hBQFqfqJ-76">
          <mxGeometry width="30" height="30" as="geometry">
            <mxRectangle width="30" height="30" as="alternateBounds" />
          </mxGeometry>
        </mxCell>
        <mxCell id="1T0dUiYLCHS9hBQFqfqJ-78" value="" style="shape=partialRectangle;connectable=0;fillColor=none;top=0;left=0;bottom=0;right=0;align=left;spacingLeft=6;overflow=hidden;whiteSpace=wrap;html=1;" vertex="1" parent="1T0dUiYLCHS9hBQFqfqJ-76">
          <mxGeometry x="30" width="150" height="30" as="geometry">
            <mxRectangle width="150" height="30" as="alternateBounds" />
          </mxGeometry>
        </mxCell>
        <mxCell id="1T0dUiYLCHS9hBQFqfqJ-79" style="edgeStyle=orthogonalEdgeStyle;rounded=0;orthogonalLoop=1;jettySize=auto;html=1;exitX=1;exitY=0.5;exitDx=0;exitDy=0;entryX=0;entryY=0.5;entryDx=0;entryDy=0;" edge="1" parent="WIyWlLk6GJQsqaUBKTNV-1" source="1T0dUiYLCHS9hBQFqfqJ-11" target="1T0dUiYLCHS9hBQFqfqJ-70">
          <mxGeometry relative="1" as="geometry" />
        </mxCell>
        <mxCell id="1T0dUiYLCHS9hBQFqfqJ-80" value="Table" style="shape=table;startSize=30;container=1;collapsible=1;childLayout=tableLayout;fixedRows=1;rowLines=0;fontStyle=1;align=center;resizeLast=1;html=1;" vertex="1" parent="WIyWlLk6GJQsqaUBKTNV-1">
          <mxGeometry x="-705" y="1250" width="180" height="150" as="geometry" />
        </mxCell>
        <mxCell id="1T0dUiYLCHS9hBQFqfqJ-81" value="" style="shape=tableRow;horizontal=0;startSize=0;swimlaneHead=0;swimlaneBody=0;fillColor=none;collapsible=0;dropTarget=0;points=[[0,0.5],[1,0.5]];portConstraint=eastwest;top=0;left=0;right=0;bottom=1;" vertex="1" parent="1T0dUiYLCHS9hBQFqfqJ-80">
          <mxGeometry y="30" width="180" height="30" as="geometry" />
        </mxCell>
        <mxCell id="1T0dUiYLCHS9hBQFqfqJ-82" value="PK" style="shape=partialRectangle;connectable=0;fillColor=none;top=0;left=0;bottom=0;right=0;fontStyle=1;overflow=hidden;whiteSpace=wrap;html=1;" vertex="1" parent="1T0dUiYLCHS9hBQFqfqJ-81">
          <mxGeometry width="30" height="30" as="geometry">
            <mxRectangle width="30" height="30" as="alternateBounds" />
          </mxGeometry>
        </mxCell>
        <mxCell id="1T0dUiYLCHS9hBQFqfqJ-83" value="UniqueID" style="shape=partialRectangle;connectable=0;fillColor=none;top=0;left=0;bottom=0;right=0;align=left;spacingLeft=6;fontStyle=5;overflow=hidden;whiteSpace=wrap;html=1;" vertex="1" parent="1T0dUiYLCHS9hBQFqfqJ-81">
          <mxGeometry x="30" width="150" height="30" as="geometry">
            <mxRectangle width="150" height="30" as="alternateBounds" />
          </mxGeometry>
        </mxCell>
        <mxCell id="1T0dUiYLCHS9hBQFqfqJ-84" value="" style="shape=tableRow;horizontal=0;startSize=0;swimlaneHead=0;swimlaneBody=0;fillColor=none;collapsible=0;dropTarget=0;points=[[0,0.5],[1,0.5]];portConstraint=eastwest;top=0;left=0;right=0;bottom=0;" vertex="1" parent="1T0dUiYLCHS9hBQFqfqJ-80">
          <mxGeometry y="60" width="180" height="30" as="geometry" />
        </mxCell>
        <mxCell id="1T0dUiYLCHS9hBQFqfqJ-85" value="" style="shape=partialRectangle;connectable=0;fillColor=none;top=0;left=0;bottom=0;right=0;editable=1;overflow=hidden;whiteSpace=wrap;html=1;" vertex="1" parent="1T0dUiYLCHS9hBQFqfqJ-84">
          <mxGeometry width="30" height="30" as="geometry">
            <mxRectangle width="30" height="30" as="alternateBounds" />
          </mxGeometry>
        </mxCell>
        <mxCell id="1T0dUiYLCHS9hBQFqfqJ-86" value="Row 1" style="shape=partialRectangle;connectable=0;fillColor=none;top=0;left=0;bottom=0;right=0;align=left;spacingLeft=6;overflow=hidden;whiteSpace=wrap;html=1;" vertex="1" parent="1T0dUiYLCHS9hBQFqfqJ-84">
          <mxGeometry x="30" width="150" height="30" as="geometry">
            <mxRectangle width="150" height="30" as="alternateBounds" />
          </mxGeometry>
        </mxCell>
        <mxCell id="1T0dUiYLCHS9hBQFqfqJ-87" value="" style="shape=tableRow;horizontal=0;startSize=0;swimlaneHead=0;swimlaneBody=0;fillColor=none;collapsible=0;dropTarget=0;points=[[0,0.5],[1,0.5]];portConstraint=eastwest;top=0;left=0;right=0;bottom=0;" vertex="1" parent="1T0dUiYLCHS9hBQFqfqJ-80">
          <mxGeometry y="90" width="180" height="30" as="geometry" />
        </mxCell>
        <mxCell id="1T0dUiYLCHS9hBQFqfqJ-88" value="" style="shape=partialRectangle;connectable=0;fillColor=none;top=0;left=0;bottom=0;right=0;editable=1;overflow=hidden;whiteSpace=wrap;html=1;" vertex="1" parent="1T0dUiYLCHS9hBQFqfqJ-87">
          <mxGeometry width="30" height="30" as="geometry">
            <mxRectangle width="30" height="30" as="alternateBounds" />
          </mxGeometry>
        </mxCell>
        <mxCell id="1T0dUiYLCHS9hBQFqfqJ-89" value="Row 2" style="shape=partialRectangle;connectable=0;fillColor=none;top=0;left=0;bottom=0;right=0;align=left;spacingLeft=6;overflow=hidden;whiteSpace=wrap;html=1;" vertex="1" parent="1T0dUiYLCHS9hBQFqfqJ-87">
          <mxGeometry x="30" width="150" height="30" as="geometry">
            <mxRectangle width="150" height="30" as="alternateBounds" />
          </mxGeometry>
        </mxCell>
        <mxCell id="1T0dUiYLCHS9hBQFqfqJ-90" value="" style="shape=tableRow;horizontal=0;startSize=0;swimlaneHead=0;swimlaneBody=0;fillColor=none;collapsible=0;dropTarget=0;points=[[0,0.5],[1,0.5]];portConstraint=eastwest;top=0;left=0;right=0;bottom=0;" vertex="1" parent="1T0dUiYLCHS9hBQFqfqJ-80">
          <mxGeometry y="120" width="180" height="30" as="geometry" />
        </mxCell>
        <mxCell id="1T0dUiYLCHS9hBQFqfqJ-91" value="" style="shape=partialRectangle;connectable=0;fillColor=none;top=0;left=0;bottom=0;right=0;editable=1;overflow=hidden;whiteSpace=wrap;html=1;" vertex="1" parent="1T0dUiYLCHS9hBQFqfqJ-90">
          <mxGeometry width="30" height="30" as="geometry">
            <mxRectangle width="30" height="30" as="alternateBounds" />
          </mxGeometry>
        </mxCell>
        <mxCell id="1T0dUiYLCHS9hBQFqfqJ-92" value="Row 3" style="shape=partialRectangle;connectable=0;fillColor=none;top=0;left=0;bottom=0;right=0;align=left;spacingLeft=6;overflow=hidden;whiteSpace=wrap;html=1;" vertex="1" parent="1T0dUiYLCHS9hBQFqfqJ-90">
          <mxGeometry x="30" width="150" height="30" as="geometry">
            <mxRectangle width="150" height="30" as="alternateBounds" />
          </mxGeometry>
        </mxCell>
        <mxCell id="1T0dUiYLCHS9hBQFqfqJ-93" value="创建&lt;h2 style=&quot;box-sizing: border-box; margin: 0px; color: rgba(0, 0, 0, 0.8); font-size: 16px; line-height: 44px; border-bottom: 1px dashed rgb(228, 230, 237); display: flex; align-items: center; position: relative; font-family: &amp;quot;PingFang SC, Microsoft YaHei, Arial, sans-serif&amp;quot;; text-align: start; text-wrap-mode: wrap; background-color: rgb(255, 255, 255);&quot; class=&quot;title dashed&quot;&gt;Incident List&lt;/h2&gt;&lt;div style=&quot;box-sizing: border-box; display: flex; justify-content: space-between; color: rgb(84, 99, 111); font-family: &amp;quot;PingFang SC, Microsoft YaHei, Arial, sans-serif&amp;quot;; font-size: 14px; text-align: start; text-wrap-mode: wrap; background-color: rgb(255, 255, 255); margin-top: 20px;&quot; class=&quot;flex-box flex-box-content-between&quot;&gt;&lt;div style=&quot;box-sizing: border-box;&quot; class=&quot;flex-group&quot;&gt;&lt;button style=&quot;font-family: inherit; font-size: 12px; line-height: 1.499; margin: 0px 24px 0px 0px; overflow: visible; appearance: button; touch-action: manipulation; color: rgb(255, 255, 255); position: relative; font-weight: 400; text-wrap-mode: nowrap; background-image: none; border-color: rgb(0, 155, 244); box-shadow: rgba(0, 0, 0, 0.043) 0px 2px 0px; cursor: pointer; transition: 0.3s cubic-bezier(0.645, 0.045, 0.355, 1); user-select: none; height: 32px; padding: 0px 14px; background-color: rgb(0, 155, 244); outline: 0px; text-shadow: rgba(0, 0, 0, 0.12) 0px -1px 0px;&quot; class=&quot;ant-btn ant-btn-primary&quot; type=&quot;button&quot;&gt;&lt;span style=&quot;box-sizing: border-box; display: inline-block; color: inherit; line-height: 1; vertical-align: -0.125em; text-rendering: optimizelegibility; -webkit-font-smoothing: antialiased; transition: margin-left 0.3s cubic-bezier(0.645, 0.045, 0.355, 1); pointer-events: none; font-size: 14px;&quot; class=&quot;anticon anticon-plus&quot; aria-label=&quot;icon: plus&quot;&gt;&lt;svg aria-hidden=&quot;true&quot; fill=&quot;currentColor&quot; height=&quot;1em&quot; width=&quot;1em&quot; data-icon=&quot;plus&quot; class=&quot;&quot; viewBox=&quot;64 64 896 896&quot;&gt;&lt;path d=&quot;M482 152h60q8 0 8 8v704q0 8-8 8h-60q-8 0-8-8V160q0-8 8-8z&quot;&gt;&lt;/path&gt;&lt;path d=&quot;M176 474h672q8 0 8 8v60q0 8-8 8H176q-8 0-8-8v-60q0-8 8-8z&quot;&gt;&lt;/path&gt;&lt;/svg&gt;&lt;/span&gt;&lt;span style=&quot;box-sizing: border-box; display: inline-block; transition: margin-left 0.3s cubic-bezier(0.645, 0.045, 0.355, 1); pointer-events: none; margin-left: 8px;&quot;&gt;Add&lt;/span&gt;&lt;/button&gt;&lt;/div&gt;&lt;/div&gt;&lt;div style=&quot;box-sizing: border-box; margin-top: 20px; color: rgb(84, 99, 111); font-family: &amp;quot;PingFang SC, Microsoft YaHei, Arial, sans-serif&amp;quot;; font-size: 14px; text-align: start; text-wrap-mode: wrap; background-color: rgb(255, 255, 255);&quot; class=&quot;complex-table&quot;&gt;&lt;div style=&quot;box-sizing: border-box; zoom: 1;&quot; class=&quot;ant-table-wrapper&quot;&gt;&lt;div style=&quot;box-sizing: border-box; position: relative;&quot; class=&quot;ant-spin-nested-loading&quot;&gt;&lt;div style=&quot;box-sizing: border-box; position: relative; transition: opacity 0.3s;&quot; class=&quot;ant-spin-container&quot;&gt;&lt;div style=&quot;box-sizing: border-box; margin: 0px; padding: 0px; color: rgba(0, 0, 0, 0.65); font-variant-numeric: tabular-nums; font-variant-east-asian: normal; font-variant-alternates: normal; font-variant-position: normal; font-variant-emoji: normal; line-height: 1.5; list-style: none; font-feature-settings: &amp;quot;tnum&amp;quot;; position: relative; clear: both; border-width: 1px; border-color: rgb(228, 230, 237); border-style: solid;&quot; class=&quot;ant-table ant-table-default ant-table-scroll-position-left&quot;&gt;&lt;div style=&quot;box-sizing: border-box;&quot; class=&quot;ant-table-content&quot;&gt;&lt;/div&gt;&lt;/div&gt;&lt;/div&gt;&lt;/div&gt;&lt;/div&gt;&lt;/div&gt;" style="text;html=1;align=center;verticalAlign=middle;resizable=0;points=[];autosize=1;strokeColor=none;fillColor=none;" vertex="1" parent="WIyWlLk6GJQsqaUBKTNV-1">
          <mxGeometry x="-710" y="1110" width="120" height="150" as="geometry" />
        </mxCell>
        <mxCell id="1T0dUiYLCHS9hBQFqfqJ-94" value="" style="shape=image;verticalLabelPosition=bottom;labelBackgroundColor=default;verticalAlign=top;aspect=fixed;imageAspect=0;image=data:image/png,iVBORw0KGgoAAAANSUhEUgAABqkAAANcCAIAAABDtdIMAAAgAElEQVR4Aezd247jxtkG6nVPTi7NyLUMAp/2DQwGztmcTCNHAywHWTNHSezgT2zPtMf7vR0tFMkiv6I2xVZLapJ6GkFcFItk1VOi9OFtqef/+eqb7w/8b+OHAAECBAgQIECAAAECBAgQIECAAIHZCByI8rZ3/T/bD8VHZjMpAyFAgAABAgQIECBAgAABAgQIECBAYBOzu2pb9ucZQ4AAAQIECBAgQIAAAQIECBAgQGAxAtW8L3aQ/S1mXQ2UAAECBAgQIECAAAECBAgQIECAQIz2qm3ZnycMAQIECBAgQIAAAQIECBAgQIAAgcUIVPO+2EH2t5h1NVACBAgQIECAAAECBAgQIECAAAECMdqrtmV/njAECBAgQIAAAQIECBAgQIAAAQIEFiNQzftiB9nfYtbVQAkQIECAAAECBAgQIECAAAECBAjEaK/alv15whAgQIAAAQIECBAgQIAAAQIECBBYjEA174sdZH+LWVcDJUCAAAECBAgQIECAAAECBAgQIBCjvWpb9ucJQ4AAAQIECBAgQIAAAQIECBAgQGAxAtW8L3aQ/S1mXQ2UAAECBAgQIECAAAECBAgQIECAQIz2qm3ZnycMAQIECBAgQIAAAQIECBAgQIAAgcUIVPO+2EH2t5h1NVACBAgQIECAAAECBAgQIECAAAECMdqrtmV/njAECBAgQIAAAQIECBAgQIAAAQIEFiNQzftiB9nfYtbVQAkQIECAAAECBAgQIECAAAECBAjEaK/alv15whAgQIAAAQIECBAgQIAAAQIECBBYjEA174sdZH+LWVcDJUCAAAECBAgQIECAAAECBAgQIBCjvWpb9ucJQ4AAAQIECBAgQIAAAQIECBAgQGAxAtW8L3aQ/S1mXQ2UAAECBAgQIECAAAECBAgQIECAQIz2qm3ZnycMAQIECBAgQIAAAQIECBAgQIAAgcUIVPO+2EH2t5h1NVACBAgQIECAAAECBAgQIECAAAECMdqrtmV/njAECBAgQIAAAQIECBAgQIAAAQIEFiNQzftih8fK/j764L308/5f7mqudx/+KfX84G+1jle7//MP32+EPnqQwPQVedBlHEyAAAECBAgQIECAAAECBAgQIPAQgRjtVdtnz/4++nMT8g3/90ETUU1Omrpg6733/vywaOso0bu/vP/ee+9/+Hl/cDvsdgr9gwcb/fgHgSmJ56FzjkbVbDbh34Pi0ckrcmho9hEgQIAAAQIECBAgQIAAAQIECJxXoJr3xQ7nzP7+1n62L4ReTUJ1v+xv82if+8uZ2umzv8RwbJS5Y1Q+93feG8rZCRAgQIAAAQIECBAgQIAAAQIzEojRXrV9tuxv+LxbzM42H/35np/7ezzYHSlbG0T+6cPqF5WHUWeH/J3lLsosP044dK+2do2qetCUDj73N0VJHwIECBAgQIAAAQIECBAgQIDAIwtU877Y4UzZXzXhGidNOdLqPiSYk7LNZlP27D5LmPLE4dvE7Wfoho8ZjtLG+MHDsOvAqfKHDcOR7YHNvPrsL+d6bbfdf7sw9xlmlMfZPjLMIp1l5/Bagfc//LxX7cfV9A8T6Z96xWmbAWfh/gvL+WzddErnzSb37641jD+sSHuV3RPvh6JBgAABAgQIECBAgAABAgQIECBwOoEY7VXb58n+cuC1/5utZdLU9+9DrSEFK3vmnOv95h8A6bu//6fmn7vot/t4Lgdt/Z733svh175TpX9+JOdiw2EhlWuXamvMuyOw3G3IzvKQ0iO5PVxn7/CmZ3+d2HDOI7K/POzhJNsrks13T/x0T2hnIkCAAAECBAgQIECAAAECBAgQ6AWqeV/scJ7sL0daQ+DVj65rlIne5x++P/z9u3JX+JRZOjSfuUsVQ0TVXit/3i1HdX/7YEimcuduVKNT5Qu9l3PD/MG3fKpyCnlvThLLvcPW6KJDqth9ZK8+vDye9pz5umFU3US6R7LA8C8jf/SX9CXlfGA/4Jxvducv2SesSPEpxWHCWgQIECBAgAABAgQIECBAgAABAmcUiNFetT2P7K/U6NKrLg0sM6kc2OVUcRRg9eFgiMaGk3edu7itjMzSt4vbf5I4Z205LNt5qj5K6z4Yl8czXKxr5ewvfIAuNYfIbzhi5/CGCK/tuGNUxUQ6ru1PXOYDp2V/w6hSa+eKbF+iPMgWAQIECBAgQIAAAQIECBAgQIDA6QWqeV/scN7sb1fC1U64TPSGT8OFiOxB2V8fmeUsLJz4JNnfju8FDx9dDIu6I/uLYeI9hteeNEd44SS7sr9t+XzgxOwvh6rBLYd9o7ULk9UkQIAAAQIECBAgQIAAAQIECBA4s0CM9qrt82R//fdn+79eN55zzI/Kz7vt+ZRZGdj10V6OqPKH9fovBTcfxOuukj+UV16oiMzS+O71ub88oRje9bFa3rnZbHL2l8cQdmWlvKsyvPbIHOFVsr+c0w2Xywf2gxzRHbsiwxW0CBAgQIAAAQIECBAgQIAAAQIEzi5QzftihzNlf/ErsSGlSp/va7OnmDTF9hCW5fSq3NsFdtOyv1Hulo8tY8RheKPsr4wRDy3bVqwWOo/GEPaMY8Ha8LpDc7ecGI6/5tzN4r2eaNP+vb/xdPJ58t83jM6xXVuROCNtAgQIECBAgAABAgQIECBAgACBMwvEaK/aPlf2N3yMLn5pNLW3s7/8AbSu5/vdv+F7gu/8dhlWHkJ35qnZX47tmsOHiLBdvpz35XO/914OK8vlzScZorph//2G1x2XTziMqkvx8giLDk2v9kOR24+3Y9/xb33cZ0WG6WgRIECAAAECBAgQIECAAAECBAicXaCa98UOZ8z+0kS386adiV7o9sHf8ndvd/bMn1bLUVpOqXZ/57f/TFz61zU+/LzrPDX7G/5t3PbwYuVG2V93zqJLs5Gnlgdc9sjTmTK8/shw6SbvG2V/qV9madO9/g8R7rrcrs/9FQtXWZF+WBoECBAgQIAAAQIECBAgQIAAAQLnF4jRXrV95uzv/LN1BQIECBAgQIAAAQIECBAgQIAAAQLXI1DN+2IH2d/1PDHMlAABAgQIECBAgAABAgQIECBAYPECMdqrtmV/i19vEyBAgAABAgQIECBAgAABAgQIELgegWreFzvI/q7niWGmBAgQIECAAAECBAgQIECAAAECixeI0V61Lftb/HqbAAECBAgQIECAAAECBAgQIECAwPUIVPO+2EH2dz1PDDMlQIAAAQIECBAgQIAAAQIECBBYvECM9qpt2d/i19sECBAgQIAAAQIECBAgQIAAAQIErkegmvfFDrK/63limCkBAgQIECBAgAABAgQIECBAgMDiBWK0V23L/ha/3iZAgAABAgQIECBAgAABAgQIECBwPQLVvC92kP1dzxPDTAkQIECAAAECBAgQIECAAAECBBYvEKO9alv2t/j1NgECBAgQIECAAAECBAgQIECAAIHrEajmfbGD7O96nhhmSoAAAQIECBAgQIAAAQIECBAgsHiBGO1V27K/xa+3CRAgQIAAAQIECBAgQIAAAQIECFyPQDXvix1kf9fzxDBTAgQIECBAgAABAgQIECBAgACBxQvEaK/alv0tfr1NgAABAgQIECBAgAABAgQIECBA4HoEqnlf7CD7u54nhpkSIECAAAECBAgQIECAAAECBAgsXiBGe9X2WbK///vvF+3/WsvR5n/KvSfZ/N//0qX+82l33a3NtDvsvffmfz99187if82pT7L5e3mq339Po+rP3G1+1l334ZufDqf6fbPZ3HPzy3b6v/3eHrtn87dyb7v5ee58/83PymNPsvlrM4z+VOPNX3/bbDbD3nbzTTeFX7vNr1qNnZufvyn2nmTzl+a6/akqm7+kKQyd28233ah+qWz+utls3gydp2x+3Wr88kvbudv8+SGbP5enajfv8pl3bb4t955k86eff9lsNv2p7rf5U3vsNy3OT+3mF8Xm3Rk2f2wu1J/5QZs/pikMp/rx581m88W7bgo/Ttr8tp1+7rx784fuVN3eM27+kKbw7st8oQdt/hRP9f0PR2x+1+LkYw9tfvll3vt9utCXX51g87vyVA/b/DGO6rvv0+ZXeZDjze+avV9/307/u/tsflt2Pvfm13mQ7YWGzW/TFL7+ppvCt5XNH2Lnb77duflDq5H3Hr/5zTfFsXs3v0nD+Obb3Png5tfl3odtfh+v+/U3afPbPIy8+WOrUdn8ujn2u9y53Pzqspvf5WG0192/+d1msxn2ftVsft9N4ctJmz+1OLnz8Zvff18ce+Tml2kK3//Qnerd/Ta/LY+tb/4wXCh1/uGHn1uNd18ev/nFu+bYH7tTnXvzx/JC+ze/2Ww2YW+xefeu3Pyi3fyl1bhrN3862eZP5alOsvm2GWR/qrd3aQph8+u0+XM3hbd3UzZ/baffdv7559NvvmmG0Z95vPk2DXLY227+0g3jzf03fymPDZtfbTabiZufv207/9biVDbflJ3bzV/zsRM2fy07n2Tzs+a6/am2Nr/cbDbD3s93bf7WTeGzdu9vv7ca7eZvZ9j8tLlQf+b7bX6WpjAc227+3o350/Hmu81m8/uw94jN/7Ua//2sPfYUm5+Wp2o3/5fP3Gz+7wyb//n0i81m05952uamnX7uvGfzv+nMm03ee7rN/ytP1W+2l5v+/9W8L3Y4S/Y3fax6EiBAgAABAgQIECBAgAABAgQIECAwXSBGe9W27G86rJ4ECBAgQIAAAQIECBAgQIAAAQIEHlmgmvfFDrK/R14tlydAgAABAgQIECBAgAABAgQIECAwXSBGe9W27G86rJ4ECBAgQIAAAQIECBAgQIAAAQIEHlmgmvfFDrK/R14tlydAgAABAgQIECBAgAABAgQIECAwXSBGe9W27G86rJ4ECBAgQIAAAQIECBAgQIAAAQIEHlmgmvfFDrK/R14tlydAgAABAgQIECBAgAABAgQIECAwXSBGe9W27G86rJ4ECBAgQIAAAQIECBAgQIAAAQIEHlmgmvfFDrK/R14tlydAgAABAgQIECBAgAABAgQIECAwXSBGe9W27G86rJ4ECBAgQIAAAQIECBAgQIAAAQIEHlmgmvfFDrK/R14tlydAgAABAgQIECBAgAABAgQIECAwXSBGe9W27G86rJ4ECBAgQIAAAQIECBAgQIAAAQIEHlmgmvfFDrK/R14tlydAgAABAgQIECBAgAABAgQIECAwXSBGe9W27G86rJ4ECBAgQIAAAQIECBAgQIAAAQIEHlmgmvfFDrK/R14tlydAgAABAgQIECBAgAABAgQIECAwXSBGe9W27G86rJ4ECBAgQIAAAQIECBAgQIAAAQIEHlmgmvfFDrK/R14tlydAgAABAgQIECBAgAABAgQIECAwXSBGe9W27G86rJ4ECBAgQIAAAQIECBAgQIAAAQIEHlmgmvfFDrK/R14tlydAgAABAgQIECBAgAABAgQIECAwXSBGe9W27G86rJ4ECBAgQIAAAQIECBAgQIAAAQIEHlmgmvfFDrK/R14tlydAgAABAgQIECBAgAABAgQIECAwXSBGe9W27G86rJ4ECBAgQIAAAQIECBAgQIAAAQIEHlmgmvfFDrK/R14tlydAgAABAgQIECBAgAABAgQIECAwXSBGe9W27G86rJ4ECBAgQIAAAQIECBAgQIAAAQIEHlmgmvfFDrK/R14tl5+nwJ0fAgSuTGCer0VGRYAAAQL3Fbiyty/TJUDg7r6vEvoTWIdAjPaqbdnfOhbdLE4scHfnLeTEpE5HYM4Cbvk5r46xESBA4F4CXtLvxaUzgaULuOWXvoLGf7RANe+LHWR/Rzs7cM0C3kLWvLrmRmBLwC2/ReIBAgQILFXAS/pSV864CRwl4JY/is1BaxCI0V61Lftbw5Kbw8kFvIWcnNQJCcxZwC0/59UxNgIECNxLwEv6vbh0JrB0Abf80lfQ+I8WqOZ9sYPs72hnB65ZwFvImlfX3AhsCbjlt0g8QIAAgaUKeElf6soZN4GjBNzyR7E5aA0CMdqrtmV/a1hyczi5gLeQk5M6IYE5C7jl57w6xkaAAIF7CXhJvxeXzgSWLuCWX/oKGv/RAtW8L3aQ/R3t7MA1C3gLWfPqmhuBLQG3/BaJBwgQILBUAS/pS1054yZwlIBb/ig2B61BIEZ71bbsbw1Lbg4nF/AWcnJSJyQwZwG3/JxXx9gIECBwLwEv6ffi0pnA0gXc8ktfQeM/WqCa98UOsr+jnR24ZgFvIWteXXMjsCXglt8i8QABAgSWKuAlfakrZ9wEjhJwyx/F5qA1CMRor9qW/a1hyc3h5ALeQk5O6oQE5izglp/z6hgbAQIE7iXgJf1eXDoTWLqAW37pK2j8RwtU877YQfZ3tPNqDnz74ubJ8PPsdZ5Y8/iwmR8+2X+76z7tL9ic+e3tzZObF29PdpUjTzT1LeSTl8/jz+2rd90FP375/PnLT468+lGHvXt1+3y4/lGncBCBqxWYestfLZCJEyCwVoE3oQw8Y9V3Ub6pL+mquIsui4sROJfA1Fv+XNd3XgKPJhCjvWpb9vdo6zSLCzcF383tELW9vb3JmxfK/p48KdK/BWZ/Lz/u1jKlbzl+W1f2l4rjfpqzeOYaBIHTCqgaT+vpbAQILEOgqQP7Ouzt7U3fXsb494xy6kt6Ud6o4vZoepjA7AWm3vKzn4gBErivQDXvix1kf/flXV7/t3/4455Bv3765ElO+vZ0OePDKVu8efb0phzDkrO/zWb47J3s74xPHacmcHIBVePJSZ2QAIH5COwrBV8/e/JkLZ/1i9pTX9KL7E8VFwm1CSxJYOotv6Q5GSuBSQIx2qu2ZX+TTBfaqS314v/HidRStiabSx8JHH8AMB2YP6zXtNtvDPe/Ku4OTAVl+7O7rIzdbl686YZWjiqlk1snSQ8+fd3vao7tt/LA2tPtGl67Jx1wIPec+hYytWpMUWD7E7+W2/yK+dDD8VvDu08xrOiQO/bV63BI/6G9dsDhwv0l4vHprHlqw0me959qHK6qRWAdAlNv+XXM1iwIELgagVgEbieAqVTb9YdWymJss2krrwat3fU6lYJNbtjuGr44PFR07WGquPa5NlRTsRAcnoexCuvawyGquAFKi8AOAVXcDhQPXYdANe+LHWR/K39SvP3DH9v/bc/z9bND4Vcb+bXpWFkC9pngJpaMoU+TFfbpYJPK9blgGEZ/nqZHLj3DeTavn/XHpT45qmv654yvSxi7w5tL56hxz/DaIcQThkHl5tS3kByQdccNm6lg62K1JmjLEVvx+Mv85wHbLu13h5se3deIP37V9oj7N7FDHu+mz/uaR5r+/QDSqPJgmnb+YnIb8HVFaDom1qPDXIYcMFxOk8CqBKbe8quatMkQIHAVAgdKwU2b2eUarOeIxVh6MBVNXUmWdg0lWc73YhmWz6aKU8X1zygNAmcVUMWdldfJ5ywQo71qW/Y356U8wdj2F3x99NZepQvs0q9nQwHXxW2pNMy/yO3bfaMb5uunXZ8igIsZYjmfMIAmzduVMw5HpCCvC/XK2K4pW/uMcKhW9w5vOOeB1tS3kBiQNaFcTs+GjG8U1aWIrf/9bT+CIXgbWv3O/iN43SO1U7Q5YLhKOGcacB5jOt2wa2i1l4lTi+1hWFoE1iMw9ZZfz4zNhACBaxHYXwo2Ak0dVcR5m81QTbVI4+yvL7va7C+XiGVKGH1VcflvQ7eV16FCUBUXnznaBKYIqOKmKOmzSoFq3hc7yP5W+RzoJnXwix4hegsGodqLHYb20KEJ7LqvcuT/NMXg0Lk58Wizv1jxePPxvXT0cP7UMfUZfkL2N1SdZcY3HL53eP0ADjWmvoWkUGz4CaFan/2lSG380/crDu8ezQcMdWF+JJ6mP0U/i5jdxXYR8I1jxM3wKcLRMUVP2V/PrLFSgam3/Eqnb1oECKxV4GApOEw6lU/ppyuvhmqq7TLK/vIn+9LOsGtrUxWXSFRx7ZPI/xM4n4Aq7ny2zjxzgRjtVduyv5mv5gmGt/3nXdqTjgu75tHwYJHN5cfDg6Nqbxhp6JMeHG32/UaPN1nds9f5Ql05mb/n23y/+N7Z35AQ9led2Jj6FrI3FCuyv+2gLteCOeAbB2+5UGyOHO/cPYfYK7Zlf7u9PEogCky95eMx2gQIEFiIwL5SsBx+V4ml0u02fd/jbb87lHwHdqXuQ8/UUsW9i9+w6D13NGLlFtuquB1YHiIwElDFjUBsXo9ANe+LHWR/1/PE2Jpp+W3Zdnco6cpsrv143esXN/l3wu3fiNmVrpUHTs3+uj8Zc3OTy82hfExDG31bZLjuvs/97ZrdFsHeB6a+hdSzv+KbwOF6ZWFXbnXd+gfTVXbmh+F84du7W3Vmf6LiD/w1B4925Sxy9IWTvdOMA9AmsGCBqbf8gqdo6AQIEKgIpCKw/T1rWYOlx3P5FwrF5mxlzyH7Kx9XxeW/8LxvCUI9VlR029lfLAjDUWWplnb0f/yl3LVvBB4nsFwBVdxy187IHygQo71qW/b3QO1lH94Uc7maa6aSirPtv/eXdqVE7+mzp/mP7qWH+i/qtoc+3X9g/4vfpmf7f6OIsD9hHkCqGvNfkEnt4u/91bO/vcNrr96cPf0rxrt/pr6F7C2n+s/9dSlaX6m9e3Xb/LsfsSpr2l269+5V/y+ADCdvOhSnGP5uTJ5A6pO7xPZ21TgEic15c97XbnzSnK9pl1VjPne+nv8SWJPA1Ft+TXM2FwIErl7g9bNYBIbSKP4CtWkflf2p4toSqymq+jIqFYKquKu/9wCcVEAVd1JOJ1uSQDXvix1kf0ta2rOMtSvp+r+q16dqW9lcE8D1u5vBpD75p98zOnC02U9i5+PNNfLXTJpssTn9s9f3/o1xus7O4bUDCAVuP6LQmPoWMsRz4eDUDNnfpv20XffX+vraL/wBmNtXn4TgLp2z/Rn6tifc8fBw2VRZ5gNiezv7e/nxcImi/OwSv3SZtk+/N+/JFxguq0VgFQJTb/lVTNYkCBAg0AsMtVYf7zX72l8PN0XY09epaOrKvKmf++t+BauKa6VTWaiK6591GgROK6CKO62nsy1IIEZ71bbsb0Era6iXE1jtW8jesPJytq5EYIYCq73lZ2htSAQIEDizwGpf0lVxZ37mOP1CBVZ7yy90PQz7ggLVvC92kP1dcGVcajkCq30LUTUu50lopJcUWO0tf0lE1yJAgMA8BFb7kq6Km8cTzCjmJrDaW35u0MYzP4EY7VXbsr/5LaARzUBgtW8hqsYZPLsMYYYCq73lZ2htSAQIEDizwGpf0lVxZ37mOP1CBVZ7yy90PQz7ggLVvC92kP1dcGVcajkC3kKWs1ZGSuAEAm75EyA6BQECBOYh4CV9HutgFAQuJOCWvxC0y8xPIEZ71bbsb34LaEQzEPAWMoNFMAQClxNwy1/O2pUIECBwZgEv6WcGdnoC8xJwy89rPYzmggLVvC92kP1dcGVcajkC3kKWs1ZGSuAEAm75EyA6BQECBOYh4CV9HutgFAQuJOCWvxC0y8xPIEZ71bbsb34LaEQzEPAWMoNFMAQClxNwy1/O2pUIECBwZgEv6WcGdnoC8xJwy89rPYzmggLVvC92kP1dcGVcajkC3kKWs1ZGSuAEAm75EyA6BQECBOYh4CV9HutgFAQuJOCWvxC0y8xPIEZ71bbsb34LaEQzEPAWMoNFMAQClxNwy1/O2pUIECBwZgEv6WcGdnoC8xJwy89rPYzmggLVvC92kP1dcGVcajkC3kKWs1ZGSuAEAm75EyA6BQECBOYh4CV9HutgFAQuJOCWvxC0y8xPIEZ71bbsb34LaEQzELjzQ4DAlQnM4IXHEAgQIEDgBAJX9vZlugQI3J3ghcMpCCxQoJr3xQ6yvwWusCETIECAAAECBAgQIECAAAECBAhcq0CM9qpt2d+1Pk3MmwABAgQIECBAgAABAgQIECBAYIEC1bwvdpD9LXCFDZkAAQIECBAgQIAAAQIECBAgQOBaBWK0V23L/q71aWLeBAgQIECAAAECBAgQIECAAAECCxSo5n2xg+xvgStsyAQIECBAgAABAgQIECBAgAABAtcqEKO9alv2d61PE/MmQIAAAQIECBAgQIAAAQIECBBYoEA174sdZH8LXGFDJkCAAAECBAgQIECAAAECBAgQuFaBGO1V27K/a32amDcBAgQIECBAgAABAgQIECBAgMACBap5X+wg+1vgChsyAQIECBAgQIAAAQIECBAgQIDAtQrEaK/alv1d69PEvAkQIECAAAECBAgQIECAAAECBBYoUM37YgfZ3wJX2JAJECBAgAABAgQIECBAgAABAgSuVSBGe9W27O9anybmTYAAAQIECBAgQIAAAQIECBAgsECBat4XO8j+FrjChkyAAAECBAgQIECAAAECBAgQIHCtAjHaq7Zlf9f6NDFvAgQIECBAgAABAgQIECBAgACBBQpU877YQfa3wBU2ZAIECBAgQIAAAQIECBAgQIAAgWsViNFetS37u9aniXkTIECAAAECBAgQIECAAAECBAgsUKCa98UOsr8FrrAhEyBAgAABAgQIECBAgAABAgQIXKtAjPaqbdnftT5NzJsAAQIECBAgQIAAAQIECBAgQGCBAtW8L3aQ/S1whQ2ZAAECBAgQIECAAAECBAgQIEDgWgVitFdty/6u9Wli3gQIECBAgAABAgQIECBAgAABAgsUqOZ9sYPsb4ErbMgECBAgQIAAAQIECBAgQIAAAQLXKhCjvWpb9netTxPzJkCAAAECBAgQIECAAAECBAgQWKBANe+LHWR/C1xhQyZAgAABAgQIECBAgAABAgQIELhWgRjtVduyv2t9mpg3AQIECBAgQIAAAQIECBAgQIDAAgWqeV/sIPtb4AobMgECBAgQIECAAAECBAgQIECAwLUKxGiv2pb9XevTxLwJECBAgAABAgQIECBAgAABAqmGdJEAACAASURBVAQWKFDN+2IH2d8CV9iQCRAgQIAAAQIECBAgQIAAAQIErlUgRnvVtuzvWp8m5k2AAAECBAgQIECAAAECBAgQILBAgWreFzvI/ha4woZMgAABAgQIECBAgAABAgQIECBwrQIx2qu2ZX/X+jQxbwIECBAgQIAAAQIECBAgQIAAgQUKVPO+2EH2t8AVNmQCBAgQIECAAAECBAgQIECAAIFrFYjRXrUt+7vWp4l5EyBAgAABAgQIECBAgAABAgQILFCgmvfFDrK/Ba6wIZ9f4M4PAQJXJnD+1xVXIECAAIFLCFzZ25fpEiBwd4lXFtcgMD+BGO1V27K/+S2gEc1A4O7OW8gMlsEQCFxKwC1/KWnXIUCAwNkFvKSfndgFCMxJwC0/p9UwlosKVPO+2EH2d9G1cbGlCHgLWcpKGSeBkwi45U/C6CQECBCYg4CX9DmsgjEQuJiAW/5i1C40N4EY7VXbsr+5LZ/xzELAW8gslsEgCFxKwC1/KWnXIUCAwNkFvKSfndgFCMxJwC0/p9UwlosKVPO+2EH2d9G1cbGlCHgLWcpKGSeBkwi45U/C6CQECBCYg4CX9DmsgjEQuJiAW/5i1C40N4EY7VXbsr+5LZ/xzELAW8gslsEgCFxKwC1/KWnXIUCAwNkFvKSfndgFCMxJwC0/p9UwlosKVPO+2EH2d9G1cbGlCHgLWcpKGSeBkwi45U/C6CQECBCYg4CX9DmsgjEQuJiAW/5i1C40N4EY7VXbsr+5LZ/xzELAW8gslsEgCFxKwC1/KWnXIUCAwNkFvKSfndgFCMxJwC0/p9UwlosKVPO+2EH2d9G1cbGlCHgLWcpKGSeBkwi45U/C6CQECBCYg4CX9DmsgjEQuJiAW/5i1C40N4EY7VXbsr+5LZ/xzELAW8gslsEgCFxKwC1/KWnXIUCAwNkFvKSfndgFCMxJwC0/p9UwlosKVPO+2EH2d9G1cbE9Am9f3Dwpfp693tPzPg+/fvrkyc2LN+mQt7c3T25evJ189NS3kE9ePo8/t6/edZf4+OXz5y8/mXy9E3R89+r2+XD9E5zQKQhckcDUW/6KSEyVAIGFCqTqJ/90VdC8ZvKmLfqelqVeKgVvbqdXaofmNPUlXRV3SNE+AosRmHrLL2ZCBkpgqkCM9qpt2d9UVv3OKXDKgm8Y54Wyv5cfd5dM6VuO39aV/aXiuJ/mAKxFYDUCqsbVLKWJELhqgSb3C6Ha66dPwta9adLpjj1+/7Fd9vfkSfGL3lOWglNf0ovyRhV37+eHAwjMRGDqLT+T4RoGgdMJVPO+2EH2dzp4Zzpe4JQF385RnPNzfyEUGz57J/vbuQ4eJDBTAVXjTBfGsAgQKAXe/uGP5QNhq8nUjo3qwnmG5v78buizr7X/2DTOm6fPbvovZzSnOGUpOPUlvcj+NhtV3L7F9DiBeQtMveXnPQujI3CEQIz2qm3Z3xHCDjm5wJ6Cr60b0/83P82Xdl8/y19kib8u7n+H/CR8YSSUnVvZX9p34KslU99CplaNKQpsf+LXcptfMR96OH5rePcphqUYKta+eh0O6fPJdsDhwv0l4vHprHlqw0me959qHK6qRWAdAlNv+XXM1iwIEFigQJv6xf8fTSIVSLE0Gu3ebIYKqvg0X1stpUqsq7baL9721Vd6NPwFldyr/Zsq3UVCGZbCx13HDsNpsr8Xb5pOw99jGZeCqXLLP1sFWzp268HhClNf0nOp0x05VEKp9ukLpM1mKIVUcYOyFoHZCEy95WczYAMhcCqBat4XO8j+TsXuPA8RGBd83bna2rErZLtCsiv1mioz/3L77Ytn+W/5xcfTEV2XC2V/QxEZqsYmaMsVZPH4y/znAdsu7XeHmx7d14g/ftX2iPubCrTP8gb1oWJts7/nfdmaRpVL2Kadv5jcBnxdHRuPT2cd5lK2hytqEViPgKpxPWtpJgTWK/D2D39s/7drintKqa5rE+31QVsslrqgLqZ7/V8JDIXUZrN58+Jp/nt8TTCXq7DibJvXt21JVh4bR5z6N5doKrsc4RXjb2LKfP5mhLlbe6J0ZPlIvMBm6kt6LHWKyqeo1m77Iqotwdq/5vzulSquQLdB4PEEpt7yjzdCVyZwJoEY7VXbsr8zrYLT3kugKUnzb3ef9IldU9r1v1guCs1NUSOGi4XHQ9m5lf2FI3Y1p76FFFVjqhTzL4SHqjFmeZs2lttO7obgbWgN4yquUj9Fl/0NVwnnTKfKY0wXGHYNrfbC8aKxPQxLi8B6BKbe8uuZsZkQILA8gYPZXyh6tmdWFlTlv4HW7MuhXvuZvZy67T9nn9+1Hyfc8XnDycd2HyoM9VsZJqbZ7D/Z9lw3m+OyP1XcTksPEliAgCpuAYtkiOcRqOZ9sYPs7zyL4Kz3EwgFXzywLPXK/G50SOra/3S/Cg6Hl8fGa+xuT30LSaHY8BNCtT77S5Ha+KfvVxzePZoPKKO7vafoxx+zu9guAr7i03zNoX00OTqm6Cn765k1Viow9ZZf6fRNiwCB+QvEb/vu+qt/oejZmsyOKmjoPrSa4+JmbPc7h2qr+e3sVp/u6vseT58f7D73l3qmbs1XlUNdt31ocUh3gQP/mfqSXpRh8VejqrgDunYRmJ3A1Ft+dgM3IAIPFYjRXrUt+3sot+NPIRAKvni6svgrK9dwSPH74fB4OLw8Nl5jd3vqW8jeUKyoGvusL16syfhywDcO3pqd+e/rjXfGswzt2Cu2ZX+DkRaBfQJTb/l9x3ucAAECFxHYlfq1F071z76/97ejChpqpKHVnChuxvYmnST/KZWQ3xV9gsG+x0fZX5f+PX29u37rTnjG7C9XYmHo7R/4a/5ay6igGjqlHc/zseNezU5V3KClReC8Aqq48/o6+4wFqnlf7CD7m/FKXtHQQsEXZ13WjWXlOhyy7/H4DZGyT7zG7vbUt5B69tf8bZgd4V9ZJ5Zb3Zj6B9NVdpyiHHrfuwz7Uqewa3yq0a5cxY6+Nrx3muUQbBFYrMDUW36xEzRwAgTWL5Cqpv5P9ZXTLQuq7e/85i/5jr5eGw8b6q506iGMKx8fLhuPHR4tj+0eb/66383NTf4TfsPJ84H7T5Z7FP+d+pK+t7zpf4OriitgbRCYp8DUW36eozcqAg8QiNFetS37e4C0Q08msKdwLEu9Mr8bDkmP519EN+1cO4bDy2O70vb0fyV6ABmqxiZ5G6K7d69u+98k518YpwAup3vhb0cPJWnToU//0im6fwxkuGAM+Ir2dvaXLzUK+JqLdP8mSTuiPL7m+7/95cM1NQmsRUDVuJaVNA8CVy3Qhmj9H0puPlPXxnqpanqy/9/6OJD95WKpOUP3d/2adp8zpnIr12Gb/p9fS4/mY8tF2Y722m/+hv6P8299DMNUxQ0WWgTmL6CKm/8aGeGZBKp5X+wg+zvTKjjtvQTaIrL/CzK5PA3hXfk76rSV/lpM96eph8Nvbl8Pj4fDHzP76/7luO4v9g0RWpevNanfJ69u+3gwRX7tz9C3/frJjocH5nS6fEBsb2d/Lz8eLlGEiMOInrd9+r15T77AcFktAqsQUDWuYhlNggCB7iu0uaIKmV5TOOXH48cDQ7WU/IrN9leq3ccJU2bX/ty8aKqtIWRMB+Vdb7pVKI6NK7Mj++uGneu6ZhzP8imHYLE/S7pe7NzvaBtTX9KHX7KOThCyP1XcyMYmgfkJTL3l5zdyIyLwQIEY7VXbsr8Hajt8nQKrfQvZW+aucx3NisBEgdXe8hPnrxsBAgRWJLDal3RV3IqepaZyQoHV3vInNHKqlQpU877YQfa30meBaT1MYLVvIarGhz0xHL1WgdXe8mtdMPMiQIDAfoHVvqSr4vYvuj3XLLDaW/6aF9XcpwnEaK/alv1NQ9XrygRW+xaiaryyZ7LpThRY7S0/cf66ESBAYEUCq31JV8Wt6FlqKicUWO0tf0Ijp1qpQDXvix1kfyt9FpjWwwS8hTzMz9EEFibgll/YghkuAQIE9gt4Sd9vYw+BFQq45Ve4qKY0TSBGe9W27G8aql5XJuAt5MoW3HSvXcAtf+3PAPMnQGBFAl7SV7SYpkKgLuCWrxvpsVKBat4XO8j+VvosMK2HCXgLeZifowksTMAtv7AFM1wCBAjsF/CSvt/GHgIrFHDLr3BRTWmaQIz2qm3Z3zRUva5MwFvIlS246V67gFv+2p8B5k+AwIoEvKSvaDFNhUBdwC1fN9JjpQLVvC92kP2t9FlgWg8T8BbyMD9HE1iYgFt+YQtmuAQIENgv4CV9v409BFYo4JZf4aKa0jSBGO1V27K/aah6XZmAt5ArW3DTvXYBt/y1PwPMnwCBFQl4SV/RYpoKgbqAW75upMdKBap5X+wg+1vps8C0HibgLeRhfo4msDABt/zCFsxwCRAgsF/AS/p+G3sIrFDALb/CRTWlaQIx2qu2ZX/TUPW6MoE7PwQIXJnAlb3ImS4BAgRWK3Blb1+mS4DA3WpfzkyMwEGBat4XO8j+DlraSYAAAQIECBAgQIAAAQIECBAgQGBOAjHaq7Zlf3NaOmMhQIAAAQIECBAgQIAAAQIECBAgcFCgmvfFDrK/g5Z2EiBAgAABAgQIECBAgAABAgQIEJiTQIz2qm3Z35yWzlgIECBAgAABAgQIECBAgAABAgQIHBSo5n2xg+zvoKWdBAgQIECAAAECBAgQIECAAAECBOYkEKO9alv2N6elMxYCBAgQIECAAAECBAgQIECAAAECBwWqeV/sIPs7aGknAQIECBAgQIAAAQIECBAgQIAAgTkJxGiv2pb9zWnpjIUAAQIECBAgQIAAAQIECBAgQIDAQYFq3hc7yP4OWtpJgAABAgQIECBAgAABAgQIECBAYE4CMdqrtmV/c1o6YyFAgAABAgQIECBAgAABAgQIECBwUKCa98UOsr+DlnYSIECAAAECBAgQIECAAAECBAgQmJNAjPaqbdnfnJbOWAgQIECAAAECBAgQIECAAAECBAgcFKjmfbGD7O+gpZ0ECBAgQIAAAQIECBAgQIAAAQIE5iQQo71qW/Y3p6UzFgIECBAgQIAAAQIECBAgQIAAAQIHBap5X+wg+ztoaScBAgQIECBAgAABAgQIECBAgACBOQnEaK/alv3NaemMhQABAgQIECBAgAABAgQIECBAgMBBgWreFzvI/g5a2kmAAAECBAgQIECAAAECBAgQIEBgTgIx2qu2ZX9zWjpjIUCAAAECBAgQIECAAAECBAgQIHBQoJr3xQ6yv4OWdhIgQIAAAQIECBAgQIAAAQIECBCYk0CM9qpt2d+cls5YCBAgQIAAAQIECBAgQIAAAQIECBwUqOZ9sYPs76ClnQQIECBAgAABAgQIECBAgAABAgTmJBCjvWpb9jenpTMWAgQIECBAgAABAgQIECBAgAABAgcFqnlf7CD7O2hpJwECBAgQIECAAAECBAgQIECAAIE5CcRor9qW/c1p6YyFAAECBAgQIECAAAECBAgQIECAwEGBat4XO8j+DlraSYAAAQIECBAgQIAAAQIECBAgQGBOAjHaq7Zlf3NaOmMhQIAAAQIECBAgQIAAAQIECBAgcFCgmvfFDrK/g5Z2EiBAgAABAgQIECBAgAABAgQIEJiTQIz2qm3Z35yWzlgIECBAgAABAgQIECBAgAABAgQIHBSo5n2xg+zvoKWdBAgQIECAAAECBAgQIECAAAECBOYkEKO9alv2N6elMxYCBAgQIECAAAECBAgQIECAAAECBwWqeV/sIPs7aGknAQIECBAgQIAAAQIECBAgQIAAgTkJxGiv2pb9zWnpjIUAAQIECBAgQIAAAQIECBAgQIDAQYFq3hc7yP4OWtpJgAABAgQIECBAgAABAgQIECBAYE4CMdqrtmV/c1o6YyFAgAABAgQIECBAgAABAgQIECBwUKCa98UOsr+DlnYSIECAAAECBAgQIECAAAECBAgQmJNAjPaqbdnfnJbOWAgQIECAAAECBAgQIECAAAECBAgcFKjmfbGD7O+gpZ0ECBAgQIAAAQIECBAgQIAAAQIE5iQQo71qW/Y3p6UzFgIECBAgQIAAAQIECBAgQIAAAQIHBap5X+wg+ztoaScBAgQIECBAgAABAgQIECBAgACBOQnEaK/alv3NaemMhQABAgQIECBAgAABAgQIECBAgMBBgWreFzvI/g5a2kmAAAECBAgQIECAAAECBAgQIEBgTgIx2qu2ZX9zWjpjIUCAAAECBAgQIECAAAECBAgQIHBQoJr3xQ6yv4OWdhIgQIAAAQIECBAgQIAAAQIECBCYk0CM9qpt2d+cls5YCBAgQIAAAQIECBAgQIAAAQIECBwUqOZ9sYPs76ClnQQIECBAgAABAgQIECBAgAABAgTmJBCjvWpb9jenpTMWAgQIECBAgAABAgQIECBAgAABAgcFqnlf7CD7O2hpJwECBAgQIECAAAECBAgQIECAAIE5CcRor9qW/c1p6YyFAAECBAgQIECAAAECBAgQIECAwEGBat4XO8j+DlraSYAAAQIECBAgQIAAAQIECBAgQGBOAjHaq7Zlf3NaOmMhQIAAAQIECBAgQIAAAQIECBAgcFCgmvfFDrK/g5Z2EiBAgAABAgQIECBAgAABAgQIEJiTQIz2qm3Z35yWzlgIECBAgAABAgQIECBAgAABAgQIHBSo5n2xg+zvoKWdBAgQIECAAAECBAgQIECAAAECBOYkEKO9alv2N6elMxYCBAgQIECAAAECBAgQIECAAAECBwWqeV/sIPs7aGknAQIECBAgQIAAAQIECBAgQIAAgTkJxGiv2pb9zWnpjIUAAQIECBAgQIAAAQIECBAgQIDAQYFq3hc7yP4OWtpJgAABAgQIECBAgAABAgQIECBAYE4CMdqrtmV/c1o6YyFAgAABAgQIECBAgAABAgQIECBwUKCa98UOsr+DlnYSIECAAAECBAgQIECAAAECBAgQmJNAjPaq7SvP/j764L308/5f7ua0guVYPv/w/TTGDz4qH77n1t2Hf2qm+ueHneaeV9WdAAECBAgQIECAAAECBAgQIEDgtALVvC92OFf299Gfm6TpTx/OOFTbbDbj7K8d9gd/m74i3Rma2eb/e2C+9rcUSPZjuPtLE/2FR6YPLvSU/QUMTQIECBAgQIAAAQIECBAgQIDAYgVitFdty/5SYNd/7u802d977713dOjZBH8x+9v43N9ib0UDJ0CAAAECBAgQIECAAAECBAicXKCa98UOsr8i+2s+ZPf+h59PX5TdnxwswrvpJ9tsNtvZ370O39vZ5/720thBgAABAgQIECBAgAABAgQIEFiQQIz2qu0LZX/5i6sffLTJIVT4tF2DOzye0rj2c3PdR962vwDbxnP5kD9/1J2//7JtTtCab+GWfykv7Prgb+Pkrsz+8vmbs+z5KN/4DPljet1nCfPE21MME4lfN24/bPj+X+66L0p3fdN/0jd/uwEXiWTRs7HKF+onmwfffQIxb/ZE2ba7Wv94v0Dbqgu6CQyVAAECBAgQIECAAAECBAgQILBSgWreFztcOPt7//32X5zI8Vb+q3Y5mcqP3y/7+9P73Z/EawKsnIL150oZWvsvXOzalbr13/kNT4k9Qwo9mubB7G+UrzWXyh8qzAf+qRv75OyvO3CY3jHZ39bsBoS8q1Qdz9s2AQIECBAgQIAAAQIECBAgQIDAYwjEaK/avnD2l1O2PhRrP26WN3MUmNm2Hs/hXfm5v/jvYHSH9J+S65KsJt3LqVn3UbhNPlseVb5s+u/WpePO0M4RXv6XgvtP5KW5fP7h+8Pn6UY982De64fanDV/LHGgKD/3V5y/OeKjv6R/UCXPZeLn/u4+/FPfc9Odc/QJwagaJqxJgAABAgQIECBAgAABAgQIECDwiALVvC92uHD21+dN+cNlZfbXfZatz8u2AriccJXZX87yNkMENnwqbjjndqy29e/8DsuWLz0cPuyLrT7CK6/YTyH07SK2blc+cNRze5BF9rfnqGHiW8KjRG90uXZ43SXaY/PSBNUwCU0CBAgQIECAAAECBAgQIECAAIHHFIjRXrU9j+xviK76BK3JoXIA138Ibnf2F/Ks3KE/T278+aNdfzivi9J2fee3/yRdPkP+4nC5tjmM63sVH5fLOVrY+16Z/Y0vPS37Gx81AE7N/nZBldlfUC2nbIsAAQIECBAgQIAAAQIECBAgQODRBKp5X+wwl+yv1eq/0Nr9MxfHZ399BBaWYTtWy+ffjtL6w8ZD6nd0jQPpYfy6ceq983N/40tvD7J7pP2oY44at4K5nOX1E8+x467P/XWd+0/2dZeQ/Y1X1zYBAgQIECBAgAABAgQIECBAYG4CMdqrtueV/SXKnMc1n/UbRV15s/sbeTneikFYPjx/vC6d8qM/N6lWvytnXn2uNw7gRkuaD+w/fhj2H8j+yl35JHlg5d7+jLnbMKQi+8sBYvh0Yfv3/vKnGvM/JZwzxPzPExdW3cRHsWD3wcaiZz8uDQIECBAgQIAAAQIECBAgQIAAgTkIVPO+2GEe2V8OvMJXY8vPoIUdTbP8e38x++s/Xlcc0n0arg/7ip3DP3Eblm/vkEKf1NwT4aVdOUTrLpb/jeNutPsO7B5vD0ppY5n99dnoMIU2wtsx4KbLKOBrrp4/JJhH1v1bw6V5qTqatk0CBAgQIECAAAECBAgQIECAAIFHEYjRXrU9y+wvfy6v4RuysPf/cpdDq0PZ3/a/+DF8hq5IBj/46EByN4rSiiHFZd0X4TV9wkk++Fv+yF4l++vDvhTM7cj+0onLVLEP6frP+qXPReY+u7K/4gzDX0KU/cWV1SZAgAABAgQIECBAgAABAgQIzFGgmvfFDufK/uYIY0wECBAgQIAAAQIECBAgQIAAAQIEFi4Qo71qW/a38NU2fAIECBAgQIAAAQIECBAgQIAAgWsSqOZ9sYPs75qeGuZKgAABAgQIECBAgAABAgQIECCwcIEY7VXbsr+Fr7bhEyBAgAABAgQIECBAgAABAgQIXJNANe+LHWR/1/TUMFcCBAgQIECAAAECBAgQIECAAIGFC8Ror9qW/S18tQ2fAAECBAgQIECAAAECBAgQIEDgmgSqeV/sIPu7pqeGuRIgQIAAAQIECBAgQIAAAQIECCxcIEZ71bbsb+GrbfgECBAgQIAAAQIECBAgQIAAAQLXJFDN+2IH2d81PTXMlQABAgQIECBAgAABAgQIECBAYOECMdqrtmV/C19twydAgAABAgQIECBAgAABAgQIELgmgWreFzvI/q7pqWGuBAgQIECAAAECBAgQIECAAAECCxeI0V61Lftb+GobPgECBAgQIECAAAECBAgQIECAwDUJVPO+2EH2d01PDXMlQIAAAQIECBAgQIAAAQIECBBYuECM9qpt2d/CV9vwCRAgQIAAAQIECBAgQIAAAQIErkmgmvfFDrK/a3pqmCsBAgQIECBAgAABAgQIECBAgMDCBWK0V23L/ha+2oZPgAABAgQIECBAgAABAgQIECBwTQLVvC92OEv293///aL9X8s+2vxPufckm//7X7rUfz7trru1mXaHvffe/O+n79pZ/K859Uk2fy9P9fvvaVT9mbvNz7rrPnzz0+FUv282m3tuftlO/7ff22P3bP5W7m03P8+d77/5WXnsSTZ/bYbRn2q8+etvm81m2Ntuvumm8Gu3+VWrsXPz8zfF3pNs/tJctz9VZfOXNIWhc7v5thvVL5XNXzebzZuh85TNr1uNX35pO3ebPz9k8+fyVO3mXT7zrs235d6TbP708y+bzaY/1f02f2qP/abF+and/KLYvDvD5o/NhfozP2jzxzSF4VQ//rzZbL54103hx0mb37bTz513b/7Qnarbe8bNH9IU3n2ZL/SgzZ/iqb7/4YjN71qcfOyhzS+/zHu/Txf68qsTbH5Xnuphmz/GUX33fdr8Kg9yvPlds/fr79vpf3efzW/Lzufe/DoPsr3QsPltmsLX33RT+Lay+UPs/M23Ozd/aDXy3uM3v/mmOHbv5jdpGN98mzsf3Py63Puwze/jdb/+Jm1+m4eRN39sNSqbXzfHfpc7l5tfXXbzuzyM9rr7N7/bbDbD3q+aze+7KXw5afOnFid3Pn7z+++LY4/c/DJN4fsfulO9u9/mt+Wx9c0fhgulzj/88HOr8e7L4ze/eNcc+2N3qnNv/lheaP/mN5vNJuwtNu/elZtftJu/tBp37eZPJ9v8qTzVSTbfNoPsT/X2Lk0hbH6dNn/upvD2bsrmr+30284//3z6zTfNMPozjzffpkEOe9vNX7phvLn/5i/lsWHzq81mM3Hz87dt599anMrmm7Jzu/lrPnbC5q9l55NsftZctz/V1uaXm81m2Pv5rs3fuil81u797fdWo9387QybnzYX6s98v83P0hSGY9vN37sxfzrefLfZbH4f9h6x+b9W47+ftceeYvPT8lTt5v/ymZvN/51h8z+ffrHZbPozT9vctNPPnfds/jedebPJe0+3+X/lqfrN9nLT/z9Ge9X2WbK/6WPVkwABAgQIECBAgAABAgQIECBAgACB6QLVvC92kP1Nh9WTAAECBAgQIECAAAECBAgQIECAwCMLxGiv2pb9PfJquTwBAgQIECBAgAABAgQIECBAgACB6QLVvC92kP1Nh9WTAAECBAgQIECAAAECBAgQIECAwCMLxGiv2pb9PfJquTwBAgQIECBAgAABAgQIECBAgACB6QLVvC92kP1Nh9WTAAECBAgQIECAAAECBAgQIECAwCMLxGiv2pb9PfJquTwBAgQIECBAgAABAgQIECBAgACB6QLVvC92kP1Nh9WTAAECBAgQIECAAAECBAgQIECAwCMLxGiv2pb9PfJquTwBAgQIECBAgAABAgQIECBAgACB6QLVvC92kP1Nh9WTAAECBAgQIECAAAECBAgQIECAwCMLxGiv2pb9PfJqjCbXggAAIABJREFUuTwBAgQIECBAgAABAgQIECBAgACB6QLVvC92kP1Nh9WTAAECBAgQIECAAAECBAgQIECAwCMLxGiv2pb9PfJquTwBAgQIECBAgAABAgQIECBAgACB6QLVvC92kP1Nh9WTAAECBAgQIECAAAECBAgQIECAwCMLxGiv2pb9PfJquTwBAgQIECBAgAABAgQIECBAgACB6QLVvC92kP1Nh9WTAAECBAgQIECAAAECBAgQIECAwCMLxGiv2pb9PfJquTwBAgQIECBAgAABAgQIECBAgACB6QLVvC92kP1Nh9WTAAECBAgQIECAAAECBAgQIECAwCMLxGiv2pb9PfJquTwBAgQIECBAgAABAgQIECBAgACB6QLVvC92kP1Nh9WTAAECBAgQIECAAAECBAgQIECAwCMLxGiv2pb9PfJquTwBAgQIECBAgAABAgQIECBAgACB6QLVvC92kP1Nh9WTAAECBAgQIECAAAECBAgQIECAwCMLxGiv2pb9PfJquTwBAgQIECBAgAABAgQIECBAgACB6QLVvC92kP1Nh9WTAAECBAgQIECAAAECBAgQIECAwCMLxGiv2pb9PfJqufw8Be78ECBwZQLzfC0yKgIECBC4r8CVvX2ZLgECd/d9ldCfwDoEqnlf7CD7W8eim8WJBe7uvIWcmNTpCMxZwC0/59UxNgIECNxLwEv6vbh0JrB0Abf80lfQ+I8WiNFetS37O9rZgWsW8Bay5tU1NwJbAm75LRIPECBAYKkCXtKXunLGTeAoAbf8UWwOWoNANe+LHWR/a1hyczi5gLeQk5M6IYE5C7jl57w6xkaAAIF7CXhJvxeXzgSWLuCWX/oKGv/RAjHaq7Zlf0c7O3DNAt5C1ry65kZgS8Atv0XiAQIECCxVwEv6UlfOuAkcJeCWP4rNQWsQqOZ9sYPsbw1Lbg4nF/AWcnJSJyQwZwG3/JxXx9gIECBwLwEv6ffi0pnA0gXc8ktfQeM/WiBGe9W27O9oZweuWcBbyJpX19wIbAm45bdIPECAAIGlCnhJX+rKGTeBowTc8kexOWgNAtW8L3aQ/a1hyc3h5ALeQk5O6oQE5izglp/z6hgbAQIE7iXgJf1eXDoTWLqAW37pK2j8RwvEaK/alv0d7ezANQt4C1nz6pobgS0Bt/wWiQcIECCwVAEv6UtdOeMmcJSAW/4oNgetQaCa98UOsr81LLk5nFzAW8jJSZ2QwJwF3PJzXh1jI0CAwL0EvKTfi0tnAksXcMsvfQWN/2iBGO1V27K/o50dWBN48+Lmyc2LN0231C5+nr7ec/hWz/awvf33nOaBD099C/nk5fP4c/vqXXfhj18+f/7ykweO4r6Hv3t124/m5ceVox9lhJUx2U3gsQSm3vKPNT7XJUCAwESBWH1t3o7Lr2f7yq/NpivARgVXOsPN7duJF691e/30yZPRBWqHHLN/6kv6jKq4VMINVeQxk3YMgesVmHrLX6+Qma9WoJr3xQ6yv9U+Dx5/YrH6jO00slT8Pbl5caiWHB9y0QlNfQtJVWOfsjXRW1e4XT5Za64ex9K3d8sdPULl6W5Qjy5aYOotv+hJGjwBAtcgUJRP4+Tu9bOm/Gp/LzvSSAc2P0U+OD7D6KB7bs4w++urpcev4s6V/RXF6j1XTHcCSxBQxS1hlYzxLAIx2qu2ZX9nWYOrOunbP/xx93xj9RnbuXcqQIv6Mu9o/7vrkLLHGbemvoWMyqkhFjs6WTt2UqOR1E9z9AiHSdYvogeBiwj861//+u6777Yv9d133/3rX//afnz7kam3/PaRHiFAgMClBPZWXHEARfm0K7nbl781Bz59dpN+NzuEg7vOEC93v/a+a9/vLNXeU1/SR7XTUOAcXSNVh7avw3DtfT2Of3w0zeNP5EgCMxWYesvPdPiGReB4gWreFzvI/o6HdmRbg8b/L0xi9RnbfaedD+7cm3oWXxLJuWFXkja/x25+WV1+lvDtbf9V49FXTFL1eeA7LFPfQkbl1FC5jarGtNn+xF/qpu4HH47fGt59ip4rjSSeu9+RGruOnTTC8aFhxM8f4UvNxaRsEOgF/v3vf3/00Uf9Zt/46KOP/v3vf/ebBxpTb/kDp7CLAAECZxOItVYlASyKq53J3c4H2+/83rx4kwqk8M2M2HmU3IVd7Z7m0FSNNcXYUJsNv+ht+6UDu59hV/5SSFvN9d8yjmcearz06KqquM1QQW5yeyje+s8mtmVnKMb6QjEen56GuUAdTvL8QJ14tieuExO4iIAq7iLMLjJHgRjtVduyvzku4YLG9PYPf2z/t2PMsfqM7aFrW9AN20WrOKQpE4cCsT+wKx9zsFd0S0VnLhNTCJjbzVXOUzXmSquNzLqCrCnRcnEWErd3r17mPw/Ydmn/Ql/To/tjfR+/anvE/U2Q11eBA1nTZ0f8t+/YYiS3Q5AXHm8u1QeK7169aoaVTtg/OFxfi8CjCvz973//xz/+EYfwj3/84+9//3t85EBb1XgAxy4CBOYgcKjiiuPbKp+2M7L8C9R4WJ/95b/L0qVvqbLKZ+irr/bAsCvt6b/M0W7ko9J4+l/ftrv6zxWmze7kW9260q44cz/gcGD/WGhMfUkfyrbm4GEz1EJtGdX9Befi8ZNXcbm4aiu6/Gej06iK9lCEpV3dQePibJjLkAMGIU0CqxKYesuvatImQyAJVPO+2EH250nzIIFDlWisPmN7uGAq3XJsNzzatUaHxL6vn+Ygrwj70oF9t9HhaUdfa25da+uBqW8hsbQqkrKhOmxawz+8kYqz7eRuKNmG1jCo4irt74O3T7Fpd6TPEebiMZ1h77H1Ee4aSneVeIVhnFoEHk/gp59+ur297e/cu7u729vbn376aeKI+gMn9teNAAECFxY4VHHFoRT1T4jnQp9K9rfZNB/Za6umeIa+xmrPFXalPUOV1Xzroq/vQremSstJYjpJ/6vZ0ZDS4+1vfMszh0kcak59SS9qpFQX5fKmXiMVlx8KpqE1dCiusq+KiwemdqgVw650qjzGdIFh19BqLxwvGtvDsLQIrEdg6i2/nhmbCYFOIEZ71bbsz/PmeIHKN1Bi9RnbwwVHReSwI7XGhwydXz/LvyVu/gG7WEQOR6Xu45++Di2vtGNr6ltIKqeGn1CO9VVjU8ANXZpW3684vHs0HzCke/mReJb+FFuDz73bTxrmre1jqyNMh+66zL7Ht0biAQKXFbi7u/vrX//aXvOvf/3r1Lu4OeBenS87LVcjQIDAplJxRaGifIq529BpFLR1O4oDmyoqpW/xDEMl1hwSdpV7+kRv3G34DW0eTHdgOtX4p/26RnnmfFjlv1Nf0osyLNY81RqpGUBx+AOruFhcxXYR8I1/odt9zST9gnl0TNEzjXOoKit2dhNYoMDUW36BUzNkAocFqnlf7CD7O4xpb11g79+diUVkbPenPFzPbR3SlarF46HubE/b7z188n4MexpT30L2llNF1bgrQWuqtL4UG5dsaTv9NEeOd+4Zc3w4Xb45+f5jqyPcd+i+x+P1tQk8jsA///nP/6/5+ec//3mvEUy95e91Up0JECBwUoG9FVe8Sl8IpQe3yqT04J4KqTiw++bv09fxDKMDw65yz3HZX/Gr3H5G5Zn7hw83pr6kz6iKi8VVbJex3taAm2JO9nf46WDv+gWm3vLrlzDDqxOI0V61Lfu7uufH5SYci8jY7kYQSsadY9o+JD3y9EX/NZB0VDpJ8Y8F9zVi6rz/C8U7rxgenPoWslWE5XP0yVrxTeC8t6zktra6bn3tl66yMz8M5xs107HN73j3Hlsd4aE/LHjP0YwGZ5PAGQX+3+bnvheYesvf97z6EyBA4MICRfm0o9Yqg7kwuOLA9Hj7zd+b4e/9jc6WSq4usOurr+Z85SXiUeGQsme6VvF3mfPAyjPnRyv/nfqSPqMqrq/5tovCsGtc1I12DR/uSzv6XzDvnWaF0W4CSxGYessvZT7GSWCyQDXvix1kf5NddbyvQCwiYzudJ5Vyu4u8/irjQ3LSVyR6TfY3PFLUlE3N2n/N9/XToqYsevbX7BtT30L2llNDstZ+wK8Py969um2+jRursqbdpXvhXwAZTt50KE4x/AHBbsyfvOxrvO4f9u367zu2OsLu7wf2l/34ZVtTxpH3YBoE5iLwQ/Nz39FMveXve179CRAgcGGBonyKuVsaRxvnvXiza0zFgW2HplrrA7728FxNNac6Jvsb/jJgumL+NW3T7j/69/b2pivg0hD6Wq4f9uqquOI7u6nQ6quv4uu8qTIcfh1cFGTtRvtvkjTtMvsL5+sVNQisRUAVt5aVNI97C8Ror9qW/d3b1wFTBWIR2ZR08S+5bNdx49PGw/O+8jfJ/ZdZXvd/JqavGpsjumSwue7oghesGrt/cKP7i3tD8dVVZk0R90ko89rCLhZ3aTIpqts6RXZp/zscONR7zZ6dx4bsb98Iu989d5fN/1Rx+++HpAeHR8qB2CKwOAFV4+KWzIAJENgtUJRPsRBqqqH2H9DYeWRxYO7RpH+huGq2mzPd3Kbq64jP/T19PZykKM6Gh/Np935BOXUNo8qjzf+d+pI+/JI1H9n9d0KNdOIqLp0ul4ixXX4MsB3wUO8NH/QblWwfF1PLY80XGM3WJoGlC0y95Zc+T+MnsCVQzftiB9nflp8H5isw/vX1nj9kc4IJeAs5AaJTEFiOgFt+OWtlpAQIEKgIrPYlvUj0Kgh2E7gegdXe8tezhGZ6rECM9qpt2d+xzI67vED6LW/xG2LZ3+UXwRUJrFJA1bjKZTUpAgSuU2C1L+myv+t8Qpt1TWC1t3xt4vYTqOZ9sYPszxNmCQLdV4Zvtv5CzfYnAU8zHW8hp3F0FgILEXDLL2ShDJMAAQJ1gdW+pMv+6ouvxzUKrPaWv8bFNOf7CcRor9qW/d0PV+8rEfAWciULbZoEWgG3vGcCAQIEViPgJX01S2kiBKYIuOWnKOmzSoFq3hc7yP5W+RwwqYcKeAt5qKDjCSxKwC2/qOUyWAIECBwS8JJ+SMc+AqsTcMuvbklNaKpAjPaqbdnfVFb9rkrAW8hVLbfJEnDLew4QIEBgNQJe0lezlCZCYIqAW36Kkj6rFKjmfbGD7G+VzwGTeqiAt5CHCjqewKIE3PKLWi6DJUCAwCEBL+mHdOwjsDoBt/zqltSEpgrEaK/alv1NZdXvqgS8hVzVcpssAbe85wABAgRWI+AlfTVLaSIEpgi45aco6bNKgWreFzvI/lb5HDCphwp4C3mooOMJLErALb+o5TJYAgQIHBLwkn5Ixz4CqxNwy69uSU1oqkCM9qpt2d9UVv2uSsBbyFUtt8kScMt7DhAgQGA1Al7SV7OUJkJgioBbfoqSPqsUqOZ9sYPsb5XPAZN6qMCdHwIErkzgoa8ajidAgACBeQhc2duX6RIgcDeP1x6jIHBpgRjtVduyv0svj+sRIECAAAECBAgQIECAAAECBAgQOFqgmvfFDrK/o50dSIAAAQIECBAgQIAAAQIECBAgQODSAjHaq7Zlf5deHtcjQIAAAQIECBAgQIAAAQIECBAgcLRANe+LHWR/Rzs7kAABAgQIECBAgAABAgQIECBAgMClBWK0V23L/i69PK5HgAABAgQIECBAgAABAgQIECBA4GiBat4XO8j+jnZ2IAECBAgQIECAAAECBAgQIECAAIFLC8Ror9qW/V16eVyPAAECBAgQIECAAAECBAgQIECAwNEC1bwvdpD9He3sQAIECBAgQIAAAQIECBAgQIAAAQKXFojRXrUt+7v08rgeAQIECBAgQIAAAQIECBAgQIAAgaMFqnlf7CD7O9rZgQQIECBAgAABAgQIECBAgAABAgQuLRCjvWpb9nfp5XE9AgQIECBAgAABAgQIECBAgAABAkcLVPO+2EH2d7SzAwkQIECAAAECBAgQIECAAAECBAhcWiBGe9W27O/Sy+N6BAgQIECAAAECBAgQIECAAAECBI4WqOZ9sYPs72hnBxIgQIAAAQIECBAgQIAAAQIECBC4tECM9qpt2d+ll8f1CBAgQIAAAQIECBAgQIAAAQIECBwtUM37YgfZ39HODiRAgAABAgQIECBAgAABAgQIECBwaYEY7VXbsr9LL4/rESBAgAABAgQIECBAgAABAgQIEDhaoJr3xQ6yv6OdHUiAAAECBAgQIECAAAECBAgQIEDg0gIx2qu2ZX+XXh7XI0CAAAECBAgQIECAAAECBAgQIHC0QDXvix1kf0c7O5AAAQIECBAgQIAAAQIECBAgQIDApQVitFdty/4uvTyuR4AAAQIECBAgQIAAAQIECBAgQOBogWreFzvI/o52diABAgQIECBAgAABAgQIECBAgACBSwvEaK/alv1denlcjwABAgQIECBAgAABAgQIECBAgMDRAtW8L3aQ/R3t7EACBAgQIECAAAECBAgQIECAAAEClxaI0V61Lfu79PK4HgECBAgQIECAAAECBAgQIECAAIGjBap5X+wg+zva2YEECBAgQIAAAQIECBAgQIAAAQIELi0Qo71qW/Z36eVxPQIECBAgQIAAAQIECBAgQIAAAQJHC1TzvthB9ne0swMJECBAgAABAgQIECBAgAABAgQIXFogRnvVtuzv0svjegQIECBAgAABAgQIECBAgAABAgSOFqjmfbGD7O9oZwcSIECAAAECBAgQIECAAAECBAgQuLRAjPaqbdnfpZfH9QgQIECAAAECBAgQIECAAAECBAgcLVDN+2IH2d/Rzg4kQIAAAQIECBAgQIAAAQIECBAgcGmBGO1V27K/Sy+P6y1C4M4PAQJXJrCIlyaDJECAAIGqwJW9fZkuAQJ31ZcFHQisUqCa98UOsr9VPgdM6qECd3feQh5q6HgCCxJwyy9osQyVAAEChwW8pB/2sZfAygTc8itbUNOZLhCjvWpb9jcdVs8rEvAWckWLbaoENhu3vGcBAQIEViPgJX01S2kiBKYIuOWnKOmzSoFq3hc7yP5W+RwwqYcKeAt5qKDjCSxKwC2/qOUyWAIECBwS8JJ+SMc+AqsTcMuvbklNaKpAjPaqbdnfVFb9rkrAW8hVLbfJEnDLew4QIEBgNQJe0lezlCZCYIqAW36Kkj6rFKjmfbGD7G+VzwGTeqiAt5CHCjqewKIE3PKLWi6DJUCAwCEBL+mHdOwjsDoBt/zqltSEpgrEaK/alv1NZdXvqgS8hVzVcpssAbe85wABAgRWI+AlfTVLaSIEpgi45aco6bNKgWreFzvI/lb5HDCphwp4C3mooOMJLErALb+o5TJYAgQIHBLwkn5Ixz4CqxNwy69uSU1oqkCM9qpt2d9UVv2uSsBbyFUtt8kScMt7DhAgQGA1Al7SV7OUJkJgioBbfoqSPqsUqOZ9sYPsb5XPAZN6qIC3kIcKOp7AogTc8otaLoMlQIDAIQEv6Yd07COwOgG3/OqW1ISmCsRor9qW/U1l3dnv9bMnT5693rnrwg++vb15cvPibbrq66dPnjy9x6Devrh5MvwM02keHzZPPqHuuqOhhomc/Ir3OOHUt5BPXj6PP7ev3nUX+fjl8+cvP7nHFR/c9d2r2+fD9R98OicgcFUCU2/5q0IxWQIE6gKpmLm5beqveufz9ghF6X1KwTehDDxj1XfeuY/OPvUlXRU3grNJYJkCU2/5Zc7OqAkcEKjmfbGD7O+AZH1XKLPqnc/aI0RmqQwdBWp7L90UfLFmfXt7kzcvlP2Ngsowkb2jvsCOqW8hqWp8+XE3oJS+5fhtXdlfMc0L8LsEgUsLTL3lLz0u1yNAYOYC88z+JpeCTR3YF41vb2/69szdDw9v6kt6Ud6o4g6j2ktgvgJTb/n5zsDICBwpEKO9alv2V1d++4c/7us01+zv5sWbfUOOj6dfC+ekLz5+mXZTLj97elOOYcnZ32YzfPZO9neZZ5GrEDiNgKrxNI7OQmClAvtLwdlmf5NKwfnUsad94kx9SS+yP1XcaRfB2QhcTmDqLX+5EbkSgQsJVPO+2EH2d2hV2lIv/v+od6iZuuIvPdL+xO9NpJCt+em+lrsJB6ZThsCr/ZpGe0BXt6W93U/x69h4rXCGMMbhexzFgW2P3YcMR/flbGrErzY34+lOuGtsBym2zt/MYqhQy1H1cHEAkejJkyfNsUPHYqa7hteOIB1wIPec+hYytWpMUWD7E7+W2/yK+dDD8VvDu08xeA65Y1+9Dof0n01sBxwu3F8iHp/Omqc2nOR5/6nG4apaBNYhMPWWX8dszYIAgckCsQjclQD2xVKq5trv/8byrL9O/2CuPdpipt8fzxPrnK5A6g/Pf+ClPTAd1f7c3L5NfWLx2XbpC6RcgvaXTH8m5lkqo7a/sVwWY8Wfk2l3vW5L02evu780MxScQ0XXHtaNbxhYnJ0qrl+NWIV17aEAU8X1ThoEdgmo4napeOwqBGK0V23L/irPibd/+GP7v539QpnVlV9d8tRUWl071UO5Enrz4kXzl/jCgenEocZqa7QhwIplWejWlGv9V3vbg8bVW1tdtQN//WLrj9G8fnYo/OpL2HJ4Q2k7KhnD2PZTFIh9mduMPg8+nGfz+lnvkPrEcrn/pnDyaUrHpnJtLp3ry310zSjiCYthtRtT30JyQNadYthMBVsXqzVBW47Yisdf5j8P2HZpvzvc9Oi+Rvzxq7ZH3L+JHcLQu0qxeaTp3w8gjSoPpmnnLya3AV+XRsbj00mGuZTtcElNAqsRmHrLr2bCJkKAwGSBg6VgX8x0BdKToUBJv/dt65hY27y97SrB8q8zx/M0dVFf4zWRYh/qhQKyqXli+fRkK/vbVYIW824zu3ySflcccHowjagrydKuoSTL+V53hmJIqjhVXP+M0iBwVgFV3Fl5nXzOAtW8L3aQ/VWW8mDBFz++15Q7OXWKwVksmPqLhdItPRZqrDKTikVb6vj6aRcjhiqsOWnMubqrjI/tHs7/iVXmULCOcrQuboun6tt9oztjP7b9FPnazX/DAJoqt71WoCh6B7FtolyQRsm9wytOu29j6ltIDMiaUC5/rG/I+EZRXYrY+t/f9pcfgreh1e8sYrhN+6m+Q6doe4SrhHOmAecxpgsMu4ZWe+E4tdgehqVFYD0CU2/59czYTAgQmCpwsBQMxUwZ0sVSMNQw/UVHhVw8T1nnjDqm8qaJ4cZ1zqj6ai40Ora/eGyk8zTVX/gl8bgYC+dpsr/+V7Nt9pd/w12mhPEiQaCcXXP1/nTDdcez64vMeNa97akv6UV5k+q1XCGp4vba2kFghgJTb/kZDt2QCDxMIEZ71bbs7xB27Yse4+wvfzCt+HBc/pVo/7G1dMVQA6XNodYZJYWpQBr/pAopFGHtBMIZ+hk1VeD2L4G7/bHK7A+JI4kdhvZwoX1jy995yScdjs2PtP8tHk8gTS07nD/1Sn2Gny5aLSdfVofD4XuHV45iz9bUt5BUNQ4/uWTcbNoP56V/5zdFauOfvl9xePdoPmBI9/Ij8TT9KfoJxOwutouAbxwjdgNNHzMcHVP0LIrj/ooaBNYjMPWWX8+MzYQAgUkCtVIwFjOxXZaCXU0SMrJxJRePLeqcVNiMf9J5hoInz2NUWzYP5wuHXC93L/6br9KlcOOThxEd2JXOGHqq4lpiVVzxVLNB4AwCqrgzoDrlMgSqeV/sIPurL+quP+/SHRXKrFi0lQVf27ervrpPqIUD0+5QSBVFU1lChaGWvcozhG6bzWbXr3PbHuGiwyHhwWJG+fHw4NYY8llCn/TQaDP3Gj/eAD17nS/U1Y99nBrEygsfyv76XyT3F53amPoWsjcU639jPI7U+hE0tWAO+Ma9cqHYRHzjnf0pikbsFdtlrLc14P5jiaNjZH+Fro21C0y95dfuYH4ECOwU2F8KxiIntnfUP6mSST9tcVIWM0VRVOwKdVExtO3HQ6VU9GyKyeHC5b641VViO6rKMKLxdcOudK5hM7VUce+2f7cayYd2rMJiWxU3GGkR2Cegitsn4/HVC8Ror9qW/T3o+RDKrErB116m7z+qnNLj3Z9KGYqmdEiT3O1IsMrAq/vN6tafa+nnNrpc9/iuk4ee5YzaK77O3zQ5MLaift1R++ZRlefv6sUnNzfpryOmP95XSvR04x0lxTD+XbPLl67/d+pbyFaUlk/dZ3/FN4Hz3rKS29rquvW1X7rK9gf9wslSs+89apeb41OFo8q5pB3914bLXaML2ySwAoGpt/wKpmoKBAicUiAWM7G9r/7pi5tR55iU9X2agTZ7XrzZGnTZq62O+j8LuNV7/I2T7Q5d5Nd+x6I8eSquusgy/rq6H14oVPsD+0bba/h3SModqrhuJUI9VlR0qridT1UPEigEVHEFh41rEqjmfbGD7O9BT40QSI1quLD5+mmuiYoHu3+gNmdeu7O/9tvBud5Khd2uv6bc1GR9ephn9ObF0/wVjzDOvLf5b3tgHl56KKSQYbRpT9p8+uxpLCtT5z1j63/TO/lzf/nq/T/ckYrD/O2Y1O7/gvW0qnEvXTPzJlkMg2wfHP5/6lvI3lBsyP7ab/320d27V7fNv/sRs7Wm3aV77171/wLIcPKmQ3GK7h8DGUZcVIqxgtyuGocgMQ6iHWf890nK7K+/fLimJoG1CEy95dcyX/MgQOBEArFYiu0i+xv+1YsQdYWKq6m+hk/JlXVOU4DlKrH5rXD4Eyh9VdaUZH2llCe3swTNO9uqLxSBTeHVlo7xF6hNu6/3hl+ytucZDbbfbE7WRZap3Y+t79EcH0C68DH/JntPkTlcVRWnigvPZc2rFlDFXfXyX/fkY7RXbcv+HvRkSXVJV4HtLfi6D+WlqqfvnC7aVWlN1PX6Nn/YbfRpt9QxnTn/hAotPl58VXaYUbxE88/gDruGVlfS5SsMWd5oRt1vlOMI9oxtdOBos7/yzseb8rAo+5qBPXsdqKdWjXuG1w4gneRCVWP3b+aXpLHrAAAgAElEQVR2f61viNCakq159PbVJ69u+0/2pciv/Rn6tn+Xb8fDPec9sr+XHw+XyF86bs4zjOh526ffm/fEEQ2X1iKweAFV4+KX0AQIPI5ALGZiu8j++j/AEn9l2tVVTZlzc5u+WJHLkrLOSfNqqqO2Uss1UjPd4fGb27ehUuot0pC6n65e7Xd1jaFW7OO9Zk/3e+V08NPXYURTs79Y6Krimi+BqOLGTz7bBE4koIo7EaTTLE+gmvfFDrK/5S2wEV9AYLVvIcNnCS+g6BIEFiOw2lt+MStgoAQIEDiZwGpf0lVxJ3uOONGqBFZ7y69qlUzmLAIx2qu2ZX9nWQMnXbrAat9CVI1Lf2oa/3kEVnvLn4fLWQkQIDBngdW+pKvi5vy0M7bHE1jtLf94pK68FIFq3hc7yP6WsqzGeVGB1b6FqBov+jxyscUIrPaWX8wKGCgBAgROJrDal3RV3MmeI060KoHV3vKrWiWTOYtAjPaqbdnfWdbASZcu4C1k6Sto/ATuJeCWvxeXzgQIEJizgJf0Oa+OsRE4uYBb/uSkTrgUgWreFzvI/payrMZ5UQFvIRfldjECjy3gln/sFXB9AgQInEzAS/rJKJ2IwBIE3PJLWCVjPItAjPaqbdnfWdbASZcu4C1k6Sto/ATuJeCWvxeXzgQIEJizgJf0Oa+OsRE4uYBb/uSkTrgUgWreFzvI/payrMZ5UQFvIRfldjECjy3gln/sFXB9AgQInEzAS/rJKJ2IwBIE3PJLWCVjPItAjPaqbdnfWdbASZcu4C1k6Sto/ATuJeCWvxeXzgQIEJizgJf0Oa+OsRE4uYBb/uSkTrgUgWreFzvI/payrMZ5UQFvIRfldjECjy3gln/sFXB9AgQInEzAS/rJKJ2IwBIE3PJLWCVjPItAjPaqbdnfWdbASZcu4C1k6Sto/ATuJeCWvxeXzgQIEJizgJf0Oa+OsRE4uYBb/uSkTrgUgWreFzvI/payrMZ5UYE7PwQIXJnARV9iXIwAAQIEziZwZW9fpkuAwN3ZXk6cmMCsBWK0V23L/ma9lgZHgAABAgQIECBAgAABAgQIECBAIApU877YQfYX6bQJECBAgAABAgQIECBAgAABAgQIzFogRnvVtuxv1mtpcAQIECBAgAABAgQIECBAgAABAgSiQDXvix1kf5FOmwABAgQIECBAgAABAgQIECBAgMCsBWK0V23L/ma9lgZHgAABAgQIECBAgAABAgQIECBAIApU877YQfYX6bQJECBAgAABAgQIECBAgAABAgQIzFogRnvVtuxv1mtpcAQIECBAgAABAgQIECBAgAABAgSiQDXvix1kf5FOmwABAgQIECBAgAABAgQIECBAgMCsBWK0V23L/ma9lgZHgAABAgQIECBAgAABAgQIECBAIApU877YQfYX6bQJECBAgAABAgQIECBAgAABAgQIzFogRnvVtuxv1mtpcAQIECBAgAABAgQIECBAgAABAgSiQDXvix1kf5FOmwABAgQIECBAgAABAgQIECBAgMCsBWK0V23L/ma9lgZHgAABAgQIECBAgAABAgQIECBAIApU877YQfYX6bQJECBAgAABAgQIECBAgAABAgQIzFogRnvVtuxv1mtpcAQIECBAgAABAgQIECBAgAABAgSiQDXvix1kf5FOmwABAgQIECBAgAABAgQIECBAgMCsBWK0V23L/ma9lgZHgAABAgQIECBAgAABAgQIECBAIApU877YQfYX6bQJECBAgAABAgQIECBAgAABAgQIzFogRnvVtuxv1mtpcAQIECBAgAABAgQIECBAgAABAgSiQDXvix1kf5FOmwABAgQIECBAgAABAgQIECBAgMCsBWK0V23L/ma9lgZHgAABAgQIECBAgAABAgQIECBAIApU877YQfYX6bQJECBAgAABAgQIECBAgAABAgQIzFogRnvVtuxv1mtpcAQIECBAgAABAgQIECBAgAABAgSiQDXvix1kf5FOmwABAgQIECBAgAABAgQIECBAgMCsBWK0V23L/ma9lgZHgAABAgQIECBAgAABAgQIECBAIApU877YQfYX6bQJECBAgAABAgQIECBAgAABAgQIzFogRnvVtuxv1mtpcAQIECBAgAABAgQIECBAgAABAgSiQDXvix1kf5FOmwABAgQIECBAgAABAgQIECBAgMCsBWK0V23L/ma9lgZHgAABAgQIECBAgAABAgQIECBAIApU877YQfYX6bQJECBAgAABAgQIECBAgAABAgQIzFogRnvVtuxv1mtpcAQIECBAgAABAgQIECBAgAABAgSiQDXvix1kf5FOmwABAgQIECBAgAABAgQIECBAgMCsBWK0V23L/ma9lgZHgAABAgQIECBAgAABAgQIECBAIApU877YQfYX6bQJECBAgAABAgQIECBAgAABAgQIzFogRnvVtuxv1mtpcAQIECBAgAABAgQIECBAgAABAgSiQDXvix1kf5FOmwABAgQIECBAgAABAgQIECBAgMCsBWK0V23L/ma9lgZHgAABAgQIECBAgAABAgQIECBAIApU877YQfYX6bQJECBAgAABAgQIECBAgAABAgQIzFogRnvVtuxv1mtpcAQIECBAgAABAgQIECBAgAABAgSiQDXvix1kf5FOmwABAgQIECBAgAABAgQIECBAgMCsBWK0V23L/ma9lgZHgAABAgQIECBAgAABAgQIECBAIApU877YQfYX6bQJECBAgAABAgQIECBAgAABAgQIzFogRnvVtuxv1mtpcAQIECBAgAABAgQIECBAgAABAgSiQDXvix1kf5FOmwABAgQIECBAgAABAgQIECBAgMCsBWK0V23L/ma9lgZHgAABAgQIECBAgAABAgQIECBAIApU877YQfYX6bQJECBAgAABAgQIECBAgAABAgQIzFogRnvVtuxv1mtpcAQIECBAgAABAgQIECBAgAABAgSiQDXvix1kf5FOmwABAgQIECBAgAABAgQIECBAgMCsBWK0V23L/ma9lgZHgAABAgQIECBAgAABAgQIECBAIApU877YQfYX6bQJECBAgAABAgQIECBAgAABAgQIzFogRnvVtuxv1mtpcAQIECBAgAABAgQIECBAgAABAgSiQDXvix1kf5FOmwABAgQIECBAgAABAgQIECBAgMCsBWK0V23L/ma9lgZHgAABAgQIECBAgAABAgQIECBAIApU877YQfYX6bQJECBAgAABAgQIECBAgAABAgQIzFogRnvVtuxv1mtpcAQIECBAgAABAgQIECBAgAABAgSiQDXvix1kf5FOmwABAgQIECBAgAABAgQIECBAgMCsBWK0V23L/ma9lgZHgAABAgQIECBAgAABAgQIECBAIApU877YQfYX6bQJECBAgAABAgQIECBAgAABAgQIzFogRnvVtuxv1mtpcAQIECBAgAABAgQIECBAgAABAgSiQDXvix1kf5FOmwABAgQIECBAgAABAgQIECBAgMCsBWK0V23L/ma9lgZHgAABAgQIECBAgAABAgQIECBAIApU877YQfYX6bQJECBAgAABAgQIECBAgAABAgQIzFogRnvVtuxv1mtpcAQIECBAgAABAgQIECBAgAABAgSiQDXvix1kf5FOmwABAgQIECBAgAABAgQIECBAgMCsBWK0V21Xsr/q8ToQIECAAAECBAgQIECAAAECBAgQIDBPAdnf9/NcGKMiQIAAAQIECBAgQIAAAQIECBAg8EAB2Z/sjwABAgQIECBAgAABAgQIECBAgMA6BWR/61zXB0bCDidAgAABAgQIECBAgAABAgQIEFiBgOxP9keAAAECBAgQIECAAAECBAgQIEBgnQKyv3Wu6wpiaVMgQIAAAQIECBAgQIAAAQIECBB4oIDsT/ZHgAABAgQIECBAgAABAgQIECBAYJ0Csr91rusDI2GHEyBAgAABAgQIECBAgAABAgQIrEBA9if7I0CAAAECBAgQIECAAAECBAgQILBOAdnfOtd1BbG0KRAgQIAAAQIECBAgQIAAAQIECDxQQPYn+yNAgAABAgQIECBAgAABAgQIECCwTgHZ3zrX9YGRsMMJECBAgAABAgQIECBAgAABAgRWICD7k/0RIECAAAECBAgQIECAAAECBAgQWKeA7G+d67qCWNoUCBAgQIAAAQIECBAgQIAAAQIEHigg+5P9ESBAgAABAgQIECBAgAABAgQIEFingOxvnev6wEjY4QQIECBAgAABAgQIECBAgAABAisQqGR/Gz8ECBAgQIAAAQIECBAgQIAAAQIECMxG4F6JpOxvNutmIAQIECBAgAABAgQIECBAgAABAgRqArK/mpD9BAgQIECAAAECBAgQIECAAAECBJYpIPtb5roZNQECBAgQIECAAAECBAgQIECAAIGagOyvJmQ/AQIECBAgQIAAAQIECBAgQIAAgWUKyP6WuW5GTYAAAQIECBAgQIAAAQIECBAgQKAmIPurCdlPgAABAgQIECBAgAABAgQIECBAYJkCsr9lrptREyBAgAABAgQIECBAgAABAgQIEKgJyP5qQvYTIECAAAECBAgQIECAAAECBAgQWKaA7G+Z62bUBAgQIECAAAECBAgQIECAAAECBGoCsr+akP0ECBAgQIAAAQIECBAgQIAAAQIElikg+1vmuhk1AQIECBAgQIAAAQIECBAgQIAAgZqA7K8mZD8BAgQIECBAgAABAgQIEPj/27ub3jiOe1/A+U46x0BejoHk6wTIzsg38O4CAXKMgBC81TrXOoLP4gC+CytenAiwAstKFrYUxS+ySIs2SYnUC90X/V41nNF0k8Oa7uJDCM5Ud3XVv57qbH7oniFAgACBeQrI/ua5b6omQIAAAQIECBAgQIAAAQIECBAgsE5A9rdOyHkCBAgQIECAAAECBAgQIECAAAEC8xSQ/c1z31RNgAABAgQIECBAgAABAgQIECBAYJ2A7G+dkPMECBAgQIAAAQIECBAgQIAAAQIE5ikg+5vnvqmaAAECBAgQIECAAAECBAgQIECAwDoB2d86IecJECBAgAABAgQIECBAgAABAgQIzFNA9jfPfVM1AQIECBAgQIAAAQIECBAgQIAAgXUCsr91Qs4TIECAAAECBAgQIECAAAECBAgQmKeA7G+e+6ZqAgQIECBAgAABAgQIECBAgAABAusEZH/rhJwnQIAAAQIECBAgQIAAAQIECBAgME8B2d88903VBAgQIECAAAECBAgQIECAAAECBNYJyP7WCTlPgAABAgQIECBAgAABAgQIECBAYJ4Csr957puqCRAgQIAAAQIECBAgQIAAAQIECKwTkP2tE3KeAAECBAgQIECAAAECBAgQIECAwDwFZH/z3DdVEyBAgAABAgQIECBAgAABAgQIEFgnIPtbJ+Q8AQIECBAgQIAAAQIECBAgQIAAgXkKyP7muW+qJkCAAAECBAgQIECAAAECBAgQILBOQPa3Tsh5AgQIECBAgAABAgQIECBAgAABAvMUkP3Nc99UTYAAAQIECBAgQIAAAQIECBAgQGCdgOxvnZDzBAgQIECAAAECBAgQIECAAAECBOYpIPub576pmgABAgQIECBAgAABAgQIECBAgMA6AdnfOiHnCRAgQIAAAQIECBAgQIAAAQIECMxTYBbZ3933r5V/7/z33jrkvQ9/X/Z8/2/rOk7xfFz835pFf/jdFGtVEwECBAgQIECAAAECBAgQIECAwPQFppX93b1ehXz9f96/WxIOzv6++/Cd+trr1XUX49/772awvpxr1679/sO1AWQ0bRXhDcoiF4qX/UWOGgQIECBAgAABAgQIECBAgAABAqMFJpP9NVFXlLNduzYy+yviR+dGa0QXLM/+qgIHPIFYDdUualD2t1C87C/aDQ0CBAgQIECAAAECBAgQIECAAIHRAtPI/rpH3q69E77ievf62Oxv9PrfcEGb/dU1lB3bI2X+NyjOG5f9xbXI/mIPLQIECBAgQIAAAQIECBAgQIAAgbECU8j+mof1rsXBX7CSxXd+wwwujuHinkF81r9NXL8O3KZyqyftkr4++ytL6i4MXyvuDlapYP2+cT9j+yxjHReeo/iGIpplWPgYIPpIgAABAgQIECBAgAABAgQIECBw1QQmkP11D/2FaVq0D3Gi1/VvM7Ugv4t7NmHZO+9UPwDSdX/n9/EX+a34Cr82pIuzv/bN3PZ95C4i7IYv08i7RbE8+xtffPMgZBz8xYlnhKVBgAABAgQIECBAgAABAgQIECBAoBaYQPbXplqr36KNE73vPnynTwnjUwu/CtKOfK3uH+Ru9VxtPBe9aNzdGSuyvy7UqzLBZsxuhOYZxuYLAdsC+qWNLr4ZuSl1RUzZ1ewDAQIECBAgQIAAAQIECBAgQIAAgU5ghtlfV3v1oQnFmjQwjgIXo7f25eIuQWs6dMldNPSQ7K/tEz70V32u61ksIBq//AHj+neN31R8nP018ywveHF0bQIECBAgQIAAAQIECBAgQIAAgastMKHsb/WP58aJXv/WbZC4vSk+674ab1X213WI7oU211vxzm8VILZ9gkrqjyuzv7aG8Io3Fd/FfA1Cd91qrmgVGgQIECBAgAABAgQIECBAgAABAldWYALZX/uibvcNemc2I8z+4pdqBz0610V7be62+Nxf1yGauc314uyvfZSvjt6W9+mGaTu37/yeo/gu+6sGDV5bvtatopvOBwIECBAgQIAAAQIECBAgQIAAAQKBwBSyv/DnMsKoa+/D39e5W5j9hZ+LosvC3vToXBftXTT7a5O+5tc8SsbFAspjd6+3cWF7tn1G7xzFhyDNvvnuv+AG9pEAAQIECBAgQIAAAQIECBAgQGClwCSyv/6b77o3WpsPZ7O/Nr9rOrS/4XuJ2d9iTQvPJzZJXNSrzf76RxrL0+//7RzFN9nf2VnaPHHl1jpBgAABAgQIECBAgAABAgQIECBwxQWmkv2V29A+JdfHaEsTvaDb+38b8nMZF3zury+nyu+W3DDB84Bl5yiVa1/7ba4dXfzy7K99iXhJMQ4RIECAAAECBAgQIECAAAECBAgQqAWmlP3ZEwIECBAgQIAAAQIECBAgQIAAAQIENicg+9ucpZEIECBAgAABAgQIECBAgAABAgQITElA9jel3VALAQIECBAgQIAAAQIECBAgQIAAgc0JyP42Z2kkAgQIECBAgAABAgQIECBAgAABAlMSkP1NaTfUQoAAAQIECBAgQIAAAQIECBAgQGBzArK/zVkaiQABAgQIECBAgAABAgQIECBAgMCUBGR/U9oNtRAgQIAAAQIECBAgQIAAAQIECBDYnIDsb3OWRiJAgAABAgQIECBAgAABAgQIECAwJQHZ35R2Qy0ECBAgQIAAAQIECBAgQIAAAQIENicg+9ucpZEIECBAgAABAgQIECBAgAABAgQITElA9jel3VALAQIECBAgQIAAAQIECBAgQIAAgc0JyP42Z2kkAgQIECBAgAABAgQIECBAgAABAlMSkP1NaTfUQoAAAQIECBAgQIAAAQIECBAgQGBzArK/zVkaiQABAgQIECBAgAABAgQIECBAgMCUBGR/U9oNtRAgQIAAAQIECBAgQIAAAQIECBDYnIDsb3OWRiJAgAABAgQIECBAgAABAgQIECAwJYHtZ39fffN9/a9mWWh+HZ/dSPOnn8qpvv62mfdMszwdnB3d/Obbp/UqfqqG3kjzNB7q9LSsqhu5aT5u5r1489t+qNOiKEY29+vlvz6tr13RfB2frZvftZ3HNx/H126k+aoqoxtqsfnqdVEU/dm6+aRZwqum+UOtsbT53ZPo7EaaL6t5u6HWNF+WS+g7183dpqqXa5qviqJ40nce0vyx1nj5su7cNF9cpPkiHqpu7rUjL2vuxmc30jx58bIoim6occ2T+tqDGuekbn4fNfcuoXlcTdSNfKHmcbmEfqjjF0VRfP+0WcLxoOZhvfy28/Lm82ao5uwlNp+XS3i63050oeZJONSz5+doHtU47bVvau7vt2eflRPt/7CB5lE81MWax2FVR8/K5g9tkYvNo+rsj8/q5R+NaR7GnS+7+WNbZD1R3zwsl/DjQbOEwzXN52Hng8Olzee1Rnv2/M2Dg+jalc2DsoyDw7bzG5s/xmcv1nwWzvvjQdk8bMtom8e1xprmj9W1R23nuPlD2uZRW0Y97+rmUVEU/dkfquazZgn7g5onNU7b+fzNZ8+ia8/Z3C+X8Ox5M9TTcc3D+Nr1zef9RGXn589f1BpP98/f/P5pde1xM9RlN4/jiVY3D4qiCM5Gzb2ncfP7uvmy1tirmycba57EQ22kuVsV2Q21u1cuIWj+WDZfNEvY3RvSfFUvv+784sXmm0+qMrqRF5u7ZZH92br5sinjyfjmy/jaoPlDURQDm9/t1p1f1zhrmk/iznXzVXvtgOaruPNGmo+rebuhzjT3i6Loz363rPm6WcLj+uzr01qjbr6+hOa31UTdyOOaj8sl9NfWzdOm5m8Xm0+Lojjtz56j+VOt8c3j+tpNNL+Nh6qbP7UjV82fLqH59bffF0XRjTysWdTLbzuvaH5TjlwU7dnNNb+Kh+qa9XTD/7v97G94rXoSIECAAAECBAgQIECAAAECBAgQIDBcQPY33EpPAgQIECBAgAABAgQIECBAgAABAnMSkP3NabfUSoAAAQIECBAgQIAAAQIECBAgQGC4gOxvuJWeBAgQIECAAAECBAgQIECAAAECBOYkIPub026plQABAgQIECBAgAABAgQIECBAgMBwAdnfcCs9CRAgQIAAAQIECBAgQIAAAQIECMxJQPY3p91SKwECBAgQIECAAAECBAgQIECAAIHhArK/4VZ6EiBAgAABAgQIECBAgAABAgQIEJiTgOxvTrulVgIECBAgQIAAAQIECBAgQIAAAQLDBWR/w630JECAAAECBAgQIECAAAECBAgQIDAnAdnfnHZLrQQIECBAgAABAgQIECBAgAABAgSGC8j+hlvpSYAAAQIECBAgQIAAAQIECBAgQGBOArK/Oe2WWgkQIECAAAECBAgQIECAAAECBAgMF5D9DbfSkwABAgQIECBAgAABAgQIECBAgMCcBGR/c9ottRIgQIAAAQIECBAgQIAAAQIECBAYLiD7G26lJwECBAgQIECAAAECBAgQIECAAIE5Ccj+5rRbaiVAgAABAgQIECBAgAABAgQIECAwXED2N9xKTwIECBAgQIAAAQIECBAgQIAAAQJzEpD9zWm31EqAAAECBAgQIECAAAECBAgQIEBguIDsb7iVngQIECBAgAABAgQIECBAgAABAgTmJCD7m9NuqZUAAQIECBAgQIAAAQIECBAgQIDAcAHZ33ArPQkQIECAAAECBAgQIECAAAECBAjMSUD2N6fdUisBAgQIECBAgAABAgQIECBAgACB4QKyv+FWehIgQIAAAQIECBAgQIAAAQIECBCYk4Dsb067pVYCExHY80cgI4GJ/N9KGQQIECBAgAABAgQIELgMAdnfZagak0DmAnt7e5mv0PKujICb+cpstYUSIECAAAECBAgQuKICsr8ruvGWTeAiAuKSi+i5dlICbuZJbYdiCBAgQIAAAQIECBDYuIDsb+OkBiSQv4C4JP89vjIrdDNfma22UAIECBAgQIAAAQJXVED2d0U33rIJXERAXHIRPddOSsDNPKntUAwBAgQIECBAgAABAhsXkP1tnNSABPIXEJfkv8dXZoVu5iuz1RZKgAABAgQIECBA4IoKyP6u6MZbNoGLCIhLLqLn2kkJuJkntR2KIUCAAAECBAgQIEBg4wKyv42TGpBA/gLikvz3+Mqs0M18ZbbaQgkQIECAAAECBAhcUQHZ3xXdeMsmcBEBcclF9Fw7KQE386S2QzEECBAgQIAAAQIECGxcQPa3cVIDEshfQFyS/x5fmRW6ma/MVlsoAQIECBAgQIAAgSsqIPub1sbfv7Wzc+Pj3aCo3ds3dnZu3l92pDwVdw56Dfm4+/GNnRu3w9mGXDWFPvdvLqBcoKgLM5577vn6F0Pjkn/e+Sj8u/3500br6ee3P+pb5yYcd2E5aft35+Gaa7dS4ZqanL4MgaE382XMbUwCBAgQIECAAAECBAhcvoDs7/KNR82wGGqV8dBOlHNVR26VYeA5Qqv4kk1nT4vFj1r5qM6bnCk2WV/GYv/z17Jp//W1F0Vx/nLD4YfGJWX216VsVfTWBH7pk7Vq9rCW7nO4sP7zuSs894X93D6lFBh6M6esyVwECBAgQIAAAQIECBDYnIDsb3OWY0ba/bd/X979SZn19Y/5lc2bN2/t7FRhX3VJn90shlDLR4yOxpdsOnvqS4smvYTGJmeKTdYXu9j//LVs2n997dvN/oqij8X6T4OqvninKIUcMty5Kzz3hUOq0mdR4MGDB0dHR4tHi+Lo6OjBgwdnj589Ivs7a+IIAQIECBAgQIAAAQI5Ccj+Uu9mnfqF/40rKPOgPum7f3Pnxsf3w3d7y6TpxsdPyouaEKo8Uv/1mWGZ8dxqDzfvBVcjt8eqKZrsqe/ZJ4xNSFR3798LrnOuesb4deN+kJ3gteUqymzmjPt3qy4vDOYNkrV6sqDsvlt9qh+jIwiD0wghCFSj47fuBzN2A9Yf6nVW5TdTB8XslGUvXXVwMNqRcqLmrz6+2r9eXzd/RdcP2zuUdfbHO+H68h6/uWGqZ/7aEtq7qLu83+Vq1PI+W/0++NC4ZCFx62Ox/lNl/bB7Nzh8Ebjs1PwtP3znn/VOlf9dPkR3vqwkHKQ7UX4IJuqeBhxU4eK0wUAfffRRWF40n8bmBB49enT37t2z4929e/fRo0dnj589MvRmPnulIwQIECBAgAABAgQIEJiDgOxvC7u0+2//Xv9bOncYRd2/VeUvZYgT533VlU2W1CRBVVAURlRtQlSGO+3ncPCiaJKsJqCqBmg+V7FRG1zVSd0c/h0AACAASURBVFI1ZdWnG22x/qBjeSocsI6ounAquDIsrw80u+vbhdfDtWlUMFNVanu8ykO7mO/+zXYJVUDWzl6lXe2ZekXtqaCu4v6ttk+1kmiKsH9QS111f1nw7Y3VZvVnPi5jtdX+dVXhznZJXLQ11Qjt5vaS0aKqPn3BUbnh/bB7++PgayXLbt2SQ5b689C4ZCH765tBslblZW1MViZ4zeenn99pvx6w7lJ/Q1/Vo/myvoef1z3C81UI2CV4felVn2XxXzlgmwqWnZrPCx/bqurhm8wxvLR4+vnnVVnBhf3sPl2iwGefffbFF1+EE3zxxRefffZZeOQNn4fezG8YwikCBAgQIECAAAECBAhMWED2t4XNeXP2VwdN1ZN9XUxTxjdVbhRlPXGc1D4G2IRuXcxUFGVa1DTDrKfJntrkqG7WcU+fIlU85VV1tyoRqp86XALX1Vuei0qtOkenu8uXzNUEVdVkwaNnQfH9UOXlfbDVzLsktAquWPidkDMjdKX1H8IigzLesKyFU/30/aCLRKVYU3m19M65nLHdwXCbqltl2UbHl8fdokrCdQWFrf84NC7pw77mybyzIVuY5TWP4J1N7vo8rf/UVxnNUj/Fd3aI4PG+tohyhMXxHt5pwr/+xKoK+x59KUtGjE5qXILAycnJ7du3u3tyb2/v9u3bJycnA6fqLhzYXzcCBAgQIECAAAECBAjMS0D2l3q/wrd9V3zrX5vOBJldm9G0p6qqF0KorllFRd2rnfWHJY8NRilSOWCXPVWx3ZkByt8DjuY/QxedjRp1vX22FVzaLq051K1iyWT9kN2nruZ+xHDAmKKKybpL2yuCGdtDbS31D600Em1Iuth/6YC93vJJqxkWig+a8ZjxjH23eHXBRseXx7sWnytb1Uva1VvkC+t/Q3NoXFKmcv1fkLl1uVn5YfGv6xdd3hxtL+jTvfZIOEw3xJlFtL2bpwujKZoRqlNlv2qU9oLF4bsOC1OsOr7QTXOTAnt7e5988kk94ieffDL0/qwuGNV5k0UbiwABAgQIECBAgAABAkkEZH9JmM9MsiL1a/rV6VWZ7LR5Uxnf3Ph4N85t4kiof+5v4Xg4eXyqT5GqPl2z+xBeWn2OC1g8HZ2NGvH40XVhVHf2nd/gqbYwDOwGX1JqN2D5oXsksLui+9BWEZu0R6vArHt+sBszrrDqHA84cNLqyoXig2Y8Zlxh3y0+3lUeQp2tMB66Pt98NWSEHQy35OPQuGThibx+pC4g6z705+pP5YnuN4IXe1UnP2re1V08uTjSknb5KF89+PkrXDXtquNLynBogwJffvnlvervyy+/HDXs0Jt51KA6EyBAgAABAgQIECBAYDICsr/JbEVQSJXp3LzZvQFa1O/t3rh5q/zev/L5u+pvIfrpm2W80/68Q9t52SV9ilSP1z2XFwVY4QhLgqPgdHR2YfCVDw32ZVcjBVNXyxjyzm+XkJYjdPNG1fTPvpVPU4Y4Zf9QtVnPwtUrvzNxIWhbuKx9vXhx0nqSrtQzzXiYmCi4quwWrqWpvV9sfSAaLWq0F6zcnaBD9HFoXLI+Wau+P2/JU3pxgha3mlK6g+UsS4aIKl5olNdWTw6WH7rv8gs7daOvqvBNXyw4sppwXp/PL/Bp9Tf2+qE389hx9SdAgAABAgQIECBAgMA0BGR/09iHhSrKqGjhTcwqoop/fiGOhPrn/ur8q8+znnx8o03HykuWfnNcWUAQKlUFdE+97d6+0TwStio4qutfiKLKZj9ZEOrFqw2vqi5pK28b9euoVUntk2nlqebzmVLbM9W4TXRYD1VfUUm2EWoFsir7a2O1+urlhnX21/aMnhYMJ61/jbct/8nHN9vf+uiQI//y0rZz94PODVuwTfU3BrZrKb/YsS4yvjyOAstz3aT975mUjN0qmiiw6xZvWNkaGpcMyP7qH9ntwrKnn9/uXrltH/ur8rnua/i6XwDpB686REM0PwbSV/7PO+1o5bHwRzr6ZwDrM804ffa3osLm54G7aR/eqV9Drorp30juS/DpsgWeV39jZxl6M48dV38CBAgQIECAAAECBAhMQ0D2N419WKyiTvr69KcMY6oXM8NDq7O/JrupvwGujdLqOepAqv7l3zBFirO/hQG6h+8WQqXlZQdRWjtbWUmbnS1e1C6tTjvv3+6ebawn64cI1h7XUcV/SxYbXhpdUfNWV9y6v8DYlVeD15WXn/v623GbI+1odQbXnizDu2jSZgfrZVYPb672jy+MK1y4qp+v3+j48jj7q38KuU2WA7qAN232VxRFmeI1f12UVidu1dHbn/+z/fK9qHPft07zzgzRbWb1IZglzAGbDK+5uAvtguwvmjR+wrAK+upLmy8QDDr3R+JCtCYlIPub1HYohgABAgQIECBAgACBjQvI/jZOasBNCSwkWJsa1jgbEBCXbADRENMQcDNPYx9UQYAAAQIECBAgQIDAZQnI/i5L1rgXFpD9XZjw0gYQl1warYFTC7iZU4ubjwABAgQIECBAgACBtAKyv7TeZhshIPsbgZW4q7gkMbjpLk/AzXx5tkYmQIAAAQIECBAgQGAKArK/KeyCGgjMTEBcMrMNU+5qATfzahtnCBAgQIAAAQIECBDIQUD2l8MuWgOBxALiksTgprs8ATfz5dkamQABAgQIECBAgACBKQjI/qawC2ogMDMBccnMNky5qwXczKttnCFAgAABAgQIECBAIAcB2V8Ou2gNBBILiEsSg5vu8gTczJdna2QCBAgQIECAAAECBKYgIPubwi6ogcDMBMQlM9sw5a4WcDOvtnGGAAECBAgQIECAAIEcBGR/OeyiNRBILCAuSQxuussTcDNfnq2RCRAgQIAAAQIECBCYgoDsbwq7oAYCMxMQl8xsw5S7WsDNvNrGGQIECBAgQIAAAQIEchCQ/eWwi9ZAILHAnj8CGQkk/r+P6QgQIECAAAECBAgQIJBSQPaXUttcBAgQIECAAAECBAgQIECAAAECBNIJyP7SWZuJAAECBAgQIECAAAECBAgQIECAQEoB2V9KbXMRIECAAAECBAgQIECAAAECBAgQSCcg+0tnbSYCBAgQIECAAAECBAgQIECAAAECKQVkfym1zUWAAAECBAgQIECAAAECBAgQIEAgnYDsL521mQgQIECAAAECBAgQIECAAAECBAikFJD9pdQ2FwECBAgQIECAAAECBAgQIECAAIF0ArK/dNZmIkCAAAECBAgQIECAAAECBAgQIJBSQPaXUttcBAgQIECAAAECBAgQIECAAAECBNIJyP7SWZuJAAECBAgQIECAAAECBAgQIECAQEoB2V9KbXMRIECAAAECBAgQIECAAAECBAgQSCcg+0tnbSYCBAgQIECAAAECBAgQIECAAAECKQVkfym1zUWAAAECBAgQIECAAAECBAgQIEAgnYDsL521mQgQIECAAAECBAgQIECAAAECBAikFJD9pdQ2FwECBAgQIECAAAECBAgQIECAAIF0ArK/dNZmIkCAAAECBAgQIECAAAECBAgQIJBSQPaXUttcBAgQIECAAAECBAgQIECAAAECBNIJyP7SWZuJAAECBAgQIECAAAECBAgQIECAQEoB2V9KbXMRIECAAAECBAgQIECAAAECBAgQSCcg+0tnbSYCBAgQIECAAAECBAgQIECAAAECKQVkfym1zUWAAAECBAgQIECAAAECBAgQIEAgnYDsL521mQgQIECAAAECBAgQIECAAAECBAikFJD9pdQ2FwECBAgQIECAAAECBAgQIECAAIF0ArK/dNZmIkCAAAECBAgQIECAAAECBAgQIJBSQPaXUttcBAgQIECAAAECBAgQIECAAAECBNIJyP7SWZuJAAECBAgQIECAAAECBAgQIECAQEoB2V9KbXMRIECAAAECBAgQIECAAAECBAgQSCcg+0tnbSYCBAgQIECAAAECBAgQIECAAAECKQVkfym1zUWAAAECBAgQIECAAAECBAgQIEAgnYDsL521mQgQIECAAAECBAgQIECAAAECBAikFJD9pdQ2FwECBAgQIECAAAECBAgQIECAAIF0ArK/dNZmIkCAAAECBAgQIECAAAECBAgQIJBSQPaXUttcBAgQIECAAAECBAgQIECAAAECBNIJyP7SWZuJAAECBAgQIECAAAECBAgQIECAQEoB2V9KbXMRIECAAAECBAgQIECAAAECBAgQSCcg+0tnbSYCBAgQIECAAAECBAgQIECAAAECKQVkfym1zUWAAAECBAgQIECAAAECBAgQIEAgnYDsL521mQgQIECAAAECBAgQIECAAAECBAikFJD9pdQ2FwECBAgQIECAAAECBAgQIECAAIF0ArK/dNZmIkCAAAECBAgQIECAAAECBAgQIJBSQPaXUttcBAgQIECAAAECBAgQIECAAAECBNIJyP7SWZuJAAECBAgQIECAAAECBAgQIECAQEoB2V9KbXMRIECAAAECBAgQIECAAAECBAgQSCcg+0tnbSYCBAgQIECAAAECBAgQIECAAAECKQVkfym1zUWAAAECBAgQIECAAAECBAgQIEAgnYDsL521mQgQIECAAAECBAgQIECAAAECBAikFJD9pdQ2FwECBAgQIECAAAECBAgQIECAAIF0ArK/dNZmIkCAAAECBAgQIECAAAECBAgQIJBSQPaXUttcBAgQIECAAAECBAgQIECAAAECBNIJyP7SWZuJAAECBAgQIECAAAECBAgQIECAQEoB2V9KbXMRIECAAAECBAgQIECAAAECBAgQSCcg+0tnbSYCBAgQIECAAAECBAgQIECAAAECKQVkfym1zUWAAAECBAgQIECAAAECBAgQIEAgnYDsL521mQgQIECAAAECBAgQIECAAAECBAikFJD9pdQ2FwECBAgQIECAAAECBAgQIECAAIF0ArK/dNZmIkCAAAECBAgQIECAAAECBAgQIJBSQPaXUttcBAgQIECAAAECBAgQIECAAAECBNIJyP7SWZuJAAECBAgQIECAAAECBAgQIECAQEoB2V9KbXMRIECAAAECBAgQIECAAAECBAgQSCcg+0tnbSYCBAgQIECAAAECBAgQIECAAAECKQVkfym1zUWAAAECBAgQIECAAAECBAgQIEAgnYDsL521mQgQIECAAAECBAgQIECAAAECBAikFJD9pdQ2FwECBAgQIECAAAECBAgQIECAAIF0ArK/dNZmIkCAAAECBAgQIECAAAECBAgQIJBSYJPZ36ixdCZAgAABAgQIECBAgAABAgQIECBAYDoCP5tOKSohQIAAAQIECBAgQIAAAQIECBAgQGCDArK/ZxvUNBQBAgQIECBAgAABAgQIECBAgACB6QjI/mR/BAgQIECAAAECBAgQIECAAAECBPIUkP3lua/TSZdVQoAAAQIECBAgQIAAAQIECBAgsC0B2Z/sjwABAgQIECBAgAABAgQIECBAgECeArK/PPd1W1myeQkQIECAAAECBAgQIECAAAECBKYjIPuT/REgQIAAAQIECBAgQIAAAQIECBDIU0D2l+e+TiddVgkBAgQIECBAgAABAgQIECBAgMC2BGR/sj8CBAgQIECAAAECBAgQIECAAAECeQrI/vLc121lyeYlQIAAAQIECBAgQIAAAQIECBCYjoDsT/ZHgAABAgQIECBAgAABAgQIECBAIE8B2V+e+zqddFklBAgQIECAAAECBAgQIECAAAEC2xKQ/cn+CBAgQIAAAQIECBAgQIAAAQIECOQpIPvLc1+3lSWblwABAgQIECBAgAABAgQIECBAYDoCsj/ZHwECBAgQIECAAAECBAgQIECAAIE8BWR/ee7rdNJllRAgQIAAAQIECBAgQIAAAQIECGxLQPYn+yNAgAABAgQIECBAgAABAgQIECCQp4DsL8993VaWbF4CBAgQIECAAAECBAgQIECAAIHpCMj+ZH8ECBAgQIAAAQIECBAgQIAAAQIE8hSQ/eW5r9NJl1VCgAABAgQIECBAgAABAgQIECCwLQHZn+yPAAECBAgQIECAAAECBAgQIECAQJ4Csr8893VbWbJ5CRAgQIAAAQIECBAgQIAAAQIEpiMg+5P9ESBAgAABAgQIECBAgAABAgQIEMhTQPaX575OJ11WCQECBAgQIECAAAECBAgQIECAwLYEZH+yPwIECBAgQIAAAQIECBAgQIAAAQJ5Csj+8tzXbWXJ5iVAgAABAgQIECBAgAABAgQIEJiOgOxP9keAAAECBAgQIECAAAECBAgQIEAgTwHZX577Op10WSUECBAgQIAAAQIECBAgQIAAAQLbEpD9yf4IECBAgAABAgQIECBAgAABAgQI5Ckg+8tzX7eVJZuXAAECBAgQIECAAAECBAgQIEBgOgKyP9kfAQIECBAgQIAAAQIECBAgQIAAgTwFZH957ut00mWVECBAgAABAgQIECBAgAABAgQIbEtA9if7I0CAAAECBAgQIECAAAECBAgQIJCngOwvz33dVpZsXgIECBAgQIAAAQIECBAgQIAAgekIyP5kfwQIECBAgAABAgQIECBAgAABAgTyFJD95bmv00mXVUKAAAECBAgQIECAAAECBAgQILAtAdmf7I8AAQIECBAgQIAAAQIECBAgQIBAngKyvzz3dVtZsnkJECBAgAABAgQIECBAgAABAgSmIyD7k/0RIECAAAECBAgQIECAAAECBAgQyFNA9pfnvk4nXVYJAQIECBAgQIAAAQIECBAgQIDAtgRkf7I/AgQIECBAgAABAgQIECBAgAABAnkKyP7y3NdtZcnmJUCAAAECBAgQIECAAAECBAgQmI6A7E/2R4AAAQIECBAgQIAAAQIECBAgQCBPAdlfnvs6nXRZJQQIECBAgAABAgQIECBAgAABAtsSkP3J/ggQIECAAAECBAgQIECAAAECBAjkKSD7y3Nft5Ulm5cAAQIECBAgQIAAAQIECBAgQGA6ArI/2R8BAgQIECBAgAABAgQIECBAgACBPAVkf3nu63TSZZUQIECAAAECBAgQIECAAAECBAhsS0D2J/sjQIAAAQIECBAgQIAAAQIECBAgkKeA7C/Pfd1WlmxeAgQIECBAgAABAgQIECBAgACB6QjI/mR/BAgQIECAAAECBAgQIECAAAECBPIUkP3lua/TSZdVQoAAAQIECBAgQIAAAQIECBAgsC0B2Z/sjwABAgQIECBAgAABAgQIECBAgECeArK/PPd1W1myeQkQIECAAAECBAgQIECAAAECBKYjIPuT/REgQIAAAQIECBAgQIAAAQIECBDIU0D2l+e+TiddVgkBAgQIECBAgAABAgQIECBAgMC2BGR/sj8CBAgQIECAAAECBAgQIECAAAECeQrI/vLc121lyeYlQIAAAQIECBAgQIAAAQIECBCYjoDsT/ZHgAABAgQIECBAgAABAgQIECBAIE8B2V+e+zqddFklBAgQIECAAAECBAgQIECAAAEC2xKQ/cn+CBAgQIAAAQIECBAgQIAAAQIECOQpIPvLc1+3lSWblwABAgQIECBAgAABAgQIECBAYDoCsj/ZHwECBAgQIECAAAECBAgQIECAAIE8BWR/ee7rdNJllRAgQIAAAQIECBAgQIAAAQIECGxLQPYn+yNAgAABAgQIECBAgAABAgQIECCQp4DsL8993VaWbF4CBAgQIECAAAECBAgQIECAAIHpCMj+ZH8ECBAgQIAAAQIECBAgQIAAAQIE8hSQ/eW5r9NJl1VCgAABAgQIECBAgAABAgQIECCwLQHZn+yPAAECBAgQIECAAAECBAgQIECAQJ4Csr8893VbWbJ5CRAgQIAAAQIECBAgQIAAAQIEpiMg+5P9ESBAgAABAgQIECBAgAABAgQIEMhTQPaX575OJ11WCQECBAgQIECAAAECBAgQIECAwLYEZH+yPwIECBAgQIAAAQIECBAgQIAAAQJ5Csj+8tzXbWXJ5iVAgAABAgQIECBAgAABAgQIEJiOgOxP9keAAAECBAgQIECAAAECBAgQIEAgTwHZX577Op10WSUECBAgQIAAAQIECBAgQIAAAQLbEpD9yf4IECBAgAABAgQIECBAgAABAgQI5Ckg+8tzX7eVJZuXAAECBAgQIECAAAECBAgQIEBgOgKyP9kfAQIECBAgQIAAAQIECBAgQIAAgTwFZH957ut00mWVECBAgAABAgQIECBAgAABAgQIbEtA9if7I0CAAAECBAgQIECAAAECBAgQIJCngOwvz33dVpZsXgIECBAgQIAAAQIECBAgQIAAgekIyP5kfwQIECBAgAABAgQIECBAgAABAgTyFJD95bmv00mXVUKAAAECBAgQIECAAAECBAgQILAtAdmf7I8AAQIECBAgQIAAAQIECBAgQIBAngKyvzz3dVtZsnkJECBAgAABAgQIECBAgAABAgSmIyD7k/0RIECAAAECBAgQIECAAAECBAgQyFNA9pfnvk4nXVYJAQIECBAgQIAAAQIECBAgQIDAtgRkf7I/AgQIECBAgAABAgQIECBAgAABAnkKyP7y3NdtZcnmJUCAAAECBAgQIECAAAECBAgQmI6A7E/2R4AAAQIECBAgQIAAAQIECBAgQCBPAdlfnvs6nXRZJQQIECBAgAABAgQIECBAgAABAtsSkP3J/ggQIECAAAECBAgQIECAAAECBAjkKSD7y3Nft5Ulm5cAAQIECBAgQIAAAQIECBAgQGA6ArI/2R8BAgQIECBAgAABAgQIECBAgACBPAVkf3nu63TSZZUQIECAAAECBAgQIECAAAECBAhsS0D2J/sjQIAAAQIECBAgQIAAAQIECBAgkKeA7C/Pfd1WlmxeAgQIECBAgAABAgQIECBAgACB6QjI/mR/BAgQIECAAAECBAgQIECAAAECBPIUkP3lua/TSZdVQoAAAQIECBAgQIAAAQIECBAgsC0B2Z/sjwABAgQIECBAgAABAgQIECBAgECeArK/PPd1W1myeQkQIECAAAECBAgQIECAAAECBKYjIPuT/REgQIAAAQIECBAgQIAAAQIECBDIU0D2l+e+TiddVgkBAgQIECBAgAABAgQIECBAgMC2BGR/sj8CBAgQIECAAAECBAgQIECAAAECeQrI/vLc121lyeYlQIAAAQIECBAgQIAAAQIECBCYjoDsT/ZHgAABAgQIECBAgAABAgQIECBAIE8B2V+e+zqddFklBAgQIECAAAECBAgQIECAAAEC2xKQ/cn+CBAgQIAAAQIECBAgQIAAAQIECOQpIPvLc1+3lSWblwABAgQIECBAgAABAgQIECBAYDoCsj/ZHwECBAgQIECAAAECBAgQIECAAIE8BWR/ee7rdNJllRAgQIAAAQIECBAgQIAAAQIECGxLQPYn+yNAgAABAgQIECBAgAABAgQIECCQp4DsL8993VaWbF4CBAgQIECAAAECBAgQIECAAIHpCMj+ZH8ECBAgQIAAAQIECBAgQIAAAQIE8hSQ/eW5r9NJl1VCgAABAgQIECBAgAABAgQIECCwLQHZn+yPAAECBAgQIECAAAECBAgQIECAQJ4Csr8893VbWbJ5CRAgQIAAAQIECBAgQIAAAQIEpiMg+5P9ESBAgAABAgQIECBAgAABAgQIEMhTQPaX575OJ11WCQECBAgQIECAAAECBAgQIECAwLYEZH+yPwIECBAgQIAAAQIECBAgQIAAAQJ5Csj+8tzXbWXJ5iVAgAABAgQIECBAgAABAgQIEJiOgOxP9keAAAECBAgQIECAAAECBAgQIEAgTwHZX577Op10WSUECBAgQIAAAQIECBAgQIAAAQLbEpD9yf4IECBAgAABAgQIECBAgAABAgQI5Ckg+8tzX7eVJZuXAAECBAgQIECAAAECBAgQIEBgOgKyP9kfAQIECBAgQIAAAQIECBAgQIAAgTwFZH957ut00mWVECBAgAABAgQIECBAgAABAgQIbEtA9if7I0CAAAECBAgQIECAAAECBAgQIJCngOwvz33dVpZsXgIECBAgQIAAAQIECBAgQIAAgekIyP5kfwQIECBAgAABAgQIECBAgAABAgTyFPjZV9987x8BAgQIECBAgAABAgQIECBAgAABAvkJ/KzwR4AAAQIECBAgQIAAAQIECBAgQIBAjgKyvxx31ZoIECBAgAABAgQIECBAgAABAgQIFIXsz11AgAABAgQIECBAgAABAgQIECBAIE8B2V+e+2pVBAgQIECAAAECBAgQIECAAAECBGR/7gECBAgQIECAAAECBAgQIECAAAECeQrI/vLcV6siQIAAAQIECBAgQIAAAQIECBAgIPtzDxAgQIAAAQIECBAgQIAAAQIECBDIU0D2l+e+WhUBAgQIECBAgAABAgQIECBAgAAB2Z97gAABAgQIECBAgAABAgQIECBAgECeArK/PPfVqggQIECAAAECBAgQIECAAAECBAjI/twDBAgQIECAAAECBAgQIECAAAECBPIUkP3lua9WRYAAAQIECBAgQIAAAQIECBAgQED25x4gQIAAAQIECBAgQIAAAQIECBAgkKeA7C/PfbUqAgQIECBAgAABAgQIECBAgAABArI/9wABAgQIECBAgAABAgQIECBAgACBPAVkf3nuq1URIECAAAECBAgQIECAAAECBAgQkP25BwgQIECAAAECBAgQIECAAAECBAjkKSD7y3NfrYoAAQIECBAgQIAAAQIECBAgQICA7M89QIAAAQIECBAgQIAAAQIECBAgQCBPAdlfnvtqVQQIECBAgAABAgQIECBAgAABAgRkf+4BAgQIECBAgAABAgQIECBAgAABAnkKyP7y3FerIkCAAAECBAgQIECAAAECBAgQICD7cw8QIECAAAECBAgQIECAAAECBAgQyFNA9pfnvloVAQIECBAgQIAAAQIECBAgQIAAAdmfe4AAAQIECBAgQIAAAQIECBAgQIBAngKyvzz3c9EHggAACStJREFU1aoIECBAgAABAgQIECBAgAABAgQIyP7cAwQIECBAgAABAgQIECBAgAABAgTyFJD95bmvVkWAAAECBAgQIECAAAECBAgQIEBA9uceIECAAAECBAgQIECAAAECBAgQyFbgH7uvf/fBs99cP3h7Z8b/fnP94HcfPPvH7uux+yT7GyumPwECBAgQIECAAAECBAgQIECAwDwE/rH7eu6pXxhZ/ub6wdj4T/Y3jztVlQQIECBAgAABAgQIECBAgAABAmMFfvfBszA7y+Dz7z54NgpB9jeKS2cCBAgQIECAAAECBAgQIECAAIHZCOT00F8dXP7m+sEofdnfKC6dCRAgQIAAAQIECBAgQIAAAQIEZiOQwYN+Z5cwSl/2N4pLZwIECBAgQIAAAQIECBAgQIAAgdkInA3OMjgySl/2N4pLZwIECBAgQIAAAQIECBAgQIAAgdkIZJD0nV3CKH3Z3ygunQkQIECAAAECBAgQIECAAAECBGYjcDY4y+DIKH3Z3ygunQkQIECAAAECBAgQIECAAAECBGYjkEHSd3YJo/Rlf6O4dCZAgAABAgQIECBAgAABAgQIEJiNwNngbFNH/uOPX771h91zjParP9z7+R/3z3Fhd8kofdnfKC6dCRAgQIAAAQIECBAgQIAAAQIEZiPQ5WWDP+z+4t17b1X/fvHewRuu+s9/nRZPj9/QYdWpm0+Lw389X3V2yPFR+rK/UVw6EyBAgAABAgQIECBAgAABAgQIzEZgSJQW9Nn9xbv7D9rFPbj3+D92VsZ/587+/mu/OPz6pJz0T49//u5Xv1o9RVBYVEZb4KD/lf0NYtKJAAECBAgQIECAAAECBAgQIEBgdgKr4rPlx//0/EFRPPx7HbSd3Nl//d7qYO7c2V8/9e0Xh8Wrm6un6HvGfUbtguxvFJfOBAgQIECAAAECBAgQIECAAAECsxFYFZ8tP/6Xl4fHR39ceNU3ejpv/5f/5179LnCd/f3qD80Lwu1X+O3+4t0vf/ne459Xbw2XB9/7qn6DuPtywOb7/t776q3/OTooTv7vu/e6U8urioO/t3cORunL/kZx6UyAAAECBAgQIECAAAECBAgQIDAbgYFpWtvt5cOieHD33lvhq7jR03nP/3pSPLhfPhhYZn97+zefNhSHDx9XmeDxg+L1/3724rA6fPjw8Vv3Xjc99vbr0LD5vr+/n/aI+y/bAqJ3e1cd7C8c8En2NwBJFwIECBAgQIAAAQIECBAgQIAAgRkKrIrPVh5vIrmX/eN4b8j++heEq9Dw8/23d47Lrws8qV4W/surMgF8Wud6Lx4UTWjY/9ZHNPKg1K8ue9Q+yP5GcelMgAABAgQIECBAgAABAgQIECAwG4GVGd+ZF2nDnu99/VO5wr2DX/7p4O0ooYuf+wt+5/c///W6+vXe4wfF6V9v10Fe3/ntnf6z7G82d49CCRAgQIAAAQIECBAgQIAAAQIEpiwQJnrrP7/3VfDVe22K95eXh8XJzfpLAN/74X+Pw3d+q3Cw+sXeD/aKw69Oquf+ZH9TviPURoAAAQIECBAgQIAAAQIECBAgkIvA+rwvfADw76fF04Pmpzne3X9Q/HTnLwdv73RfAnjvrXuvivbV3fL7/oqf/vr/qt/6+J+jw6ZzmxiWw/bP+oWf++f+ypeC/dZHLreadRAgQIAAAQIECBAgQIAAAQIECCQWGJf97Rw0b/tWVT78e/MdfP3B/dd3XhT18fJg1axX1HZ++bAJAQ/e3jnpOoef/2u/OPz6pCqs7FD++a2PGtF/CRAgQIAAAQIECBAgQIAAAQIECAwXGJv9zaL/8OUXReG3PkZx6UyAAAECBAgQIECAAAECBAgQIDAbgVlkeWOLHKUv+xvFpTMBAgQIECBAgAABAgQIECBAgMBsBMbGarPoP0pf9jeKS2cCBAgQIECAAAECBAgQIECAAIHZCMwiyxtb5Ch92d8oLp0JECBAgAABAgQIECBAgAABAgRmIzA2VptF/1H6sr9RXDoTIECAAAECBAgQIECAAAECBAjMRmAWWd7YIkfpy/5GcelMgAABAgQIECBAgAABAgQIECAwG4Gxsdos+o/Sl/2N4tKZAAECBAgQIECAAAECBAgQIEBgNgKzyPLGFjlKX/Y3iktnAgQIECBAgAABAgQIECBAgACB2Qj8+vrB2GRt4v1/ff1glL7sbxSXzgQIECBAgAABAgQIECBAgAABArMR+O2fDyee5Y0t77d/PhylL/sbxaUzAQIECBAgQIAAAQIECBAgQIDAbAQ+fXSU06N/v75+8Omjo1H6sr9RXDoTIECAAAECBAgQIECAAAECBAjMRuD4+PjTR0e//fPh3BPAX18/+O2fDz99dHR8fDxKX/Y3iktnAgQIECBAgAABAgQIECBAgACB2Qicnp4e5fV3eno6Sl/2N4pLZwIECBAgQIAAAQIECBAgQIAAgTkJnJ6eHh8fZxAAHh8fjw3+iqKQ/c3pZlUrAQIECBAgQIAAAQIECBAgQIAAgeECsr/hVnoSIECAAAECBAgQIECAAAECBAgQmJOA7G9Ou6VWAgQIECBAgAABAgQIECBAgAABAsMFZH/DrfQkQIAAAQIECBAgQIAAAQIECBAgMCcB2d+cdkutBAgQIECAAAECBAgQIECAAAECBIYLyP6GW+lJgAABAgQIECBAgAABAgQIECBAYE4Csr857ZZaCRAgQIAAAQIECBAgQIAAAQIECAwXkP0Nt9KTAAECBAgQIECAAAECBAgQIECAwJwEZH9z2i21EiBAgAABAgQIECBAgAABAgQIEBguIPsbbqUnAQIECBAgQIAAAQIECBAgQIAAgTkJyP7mtFtqJUCAAAECBAgQIECAAAECBAgQIDBcQPY33EpPAgQIECBAgAABAgQIECBAgAABAnMSkP3NabfUSoAAAQIECBAgQIAAAQIECBAgQGC4gOxvuJWeBAgQIECAAAECBAgQIECAAAECBOYkIPub026plQABAgQIECBAgAABAgQIECBAgMBwAdnfcCs9CRAgQIAAAQIECBAgQIAAAQIECMxJQPY3p91SKwECBAgQIECAAAECBAgQIECAAIHhArK/4VZ6EiBAgAABAgQIECBAgAABAgQIEJiTwP8H+2AeQvWHTucAAAAASUVORK5CYII=;" vertex="1" parent="WIyWlLk6GJQsqaUBKTNV-1">
          <mxGeometry x="-210" y="210" width="660" height="332.9" as="geometry" />
        </mxCell>
      </root>
    </mxGraphModel>
  </diagram>
</mxfile>
